<svg width="18" height="17" viewBox="0 0 18 17" fill="none" xmlns="http://www.w3.org/2000/svg">
<path d="M11.7065 5.03951C11.7065 5.12344 11.6894 5.20655 11.6561 5.28409C11.6228 5.36163 11.574 5.43209 11.5124 5.49144C11.4509 5.55079 11.3778 5.59786 11.2974 5.62998C11.2169 5.6621 11.1307 5.67863 11.0437 5.67863C10.9567 5.67863 10.8705 5.6621 10.79 5.62998C10.7096 5.59786 10.6366 5.55079 10.575 5.49144C10.5135 5.43209 10.4646 5.36163 10.4313 5.28409C10.398 5.20655 10.3809 5.12344 10.3809 5.03951C10.3809 4.87001 10.4507 4.70744 10.575 4.58758C10.6993 4.46773 10.8679 4.40039 11.0437 4.40039C11.2195 4.40039 11.3881 4.46773 11.5124 4.58758C11.6367 4.70744 11.7065 4.87001 11.7065 5.03951Z" stroke="black" stroke-width="0.492262" stroke-linecap="round" stroke-linejoin="round"/>
<path d="M11.7065 5.03951C11.7065 5.12344 11.6894 5.20655 11.6561 5.28409C11.6228 5.36163 11.574 5.43209 11.5124 5.49144C11.4509 5.55079 11.3778 5.59786 11.2974 5.62998C11.2169 5.6621 11.1307 5.67863 11.0437 5.67863C10.9567 5.67863 10.8705 5.6621 10.79 5.62998C10.7096 5.59786 10.6366 5.55079 10.575 5.49144C10.5135 5.43209 10.4646 5.36163 10.4313 5.28409C10.398 5.20655 10.3809 5.12344 10.3809 5.03951C10.3809 4.87001 10.4507 4.70744 10.575 4.58758C10.6993 4.46773 10.8679 4.40039 11.0437 4.40039C11.2195 4.40039 11.3881 4.46773 11.5124 4.58758C11.6367 4.70744 11.7065 4.87001 11.7065 5.03951Z" stroke="black" stroke-width="0.492262" stroke-linecap="round" stroke-linejoin="round"/>
<path d="M2.75879 13.0269C4.80229 10.9499 10.7122 7.27891 15.352 10.6023M13.0321 5.03846C13.0321 5.81065 11.9746 7.15584 11.4018 7.82794C11.3587 7.87952 11.3041 7.92113 11.2421 7.94972C11.1801 7.9783 11.1123 7.99314 11.0436 7.99314C10.9749 7.99314 10.907 7.9783 10.845 7.94972C10.783 7.92113 10.7285 7.87952 10.6853 7.82794C10.1129 7.15584 9.05504 5.81065 9.05504 5.03846C9.05504 4.52994 9.26454 4.04225 9.63746 3.68268C10.0104 3.3231 10.5162 3.12109 11.0436 3.12109C11.571 3.12109 12.0767 3.3231 12.4497 3.68268C12.8226 4.04225 13.0321 4.52994 13.0321 5.03846Z" stroke="black" stroke-width="0.492262" stroke-linecap="round" stroke-linejoin="round"/>
<path d="M2.75879 13.0269C4.80229 10.9499 10.7122 7.27891 15.352 10.6023M13.0321 5.03846C13.0321 5.81065 11.9746 7.15584 11.4018 7.82794C11.3587 7.87952 11.3041 7.92113 11.2421 7.94972C11.1801 7.9783 11.1123 7.99314 11.0436 7.99314C10.9749 7.99314 10.907 7.9783 10.845 7.94972C10.783 7.92113 10.7285 7.87952 10.6853 7.82794C10.1129 7.15584 9.05504 5.81065 9.05504 5.03846C9.05504 4.52994 9.26454 4.04225 9.63746 3.68268C10.0104 3.3231 10.5162 3.12109 11.0436 3.12109C11.571 3.12109 12.0767 3.3231 12.4497 3.68268C12.8226 4.04225 13.0321 4.52994 13.0321 5.03846Z" stroke="black" stroke-width="0.492262" stroke-linecap="round" stroke-linejoin="round"/>
<path d="M7.72969 9.83193C6.56976 9.03315 5.74133 8.23438 2.75879 8.23438M3.0903 14.3056C4.08414 14.6784 6.43736 14.7529 7.89544 13.347C9.71805 11.5893 12.446 13.5534 13.0321 13.6663C15.5177 14.1455 16.5119 11.4298 11.3752 9.83193" stroke="black" stroke-width="0.492262" stroke-linecap="round" stroke-linejoin="round"/>
<path d="M7.72969 9.83193C6.56976 9.03315 5.74133 8.23438 2.75879 8.23438M3.0903 14.3056C4.08414 14.6784 6.43736 14.7529 7.89544 13.347C9.71805 11.5893 12.446 13.5534 13.0321 13.6663C15.5177 14.1455 16.5119 11.4298 11.3752 9.83193" stroke="black" stroke-width="0.492262" stroke-linecap="round" stroke-linejoin="round"/>
</svg>
