<svg width="15" height="15" viewBox="0 0 15 15" fill="none" xmlns="http://www.w3.org/2000/svg">
<g clip-path="url(#clip0_511_1029)">
<path d="M13.5782 8.6045L13.5785 8.60436L11.2561 3.50991L11.2555 3.50871C11.244 3.48304 11.2274 3.45927 11.2061 3.43886L11.2059 3.43859C11.0585 3.29649 10.8832 3.18341 10.6898 3.10614C10.4963 3.02886 10.2887 2.989 10.0789 2.989C9.8691 2.989 9.66151 3.02886 9.46805 3.10614C9.27462 3.1834 9.09933 3.29646 8.952 3.43853L13.5782 8.6045ZM13.5782 8.6045L13.5834 8.61449M13.5782 8.6045L13.5834 8.61449M13.5834 8.61449C13.6296 8.70202 13.6699 8.79222 13.7042 8.88456C13.8254 9.21163 13.871 9.56006 13.8378 9.90556C13.8045 10.2511 13.6934 10.5858 13.5116 10.8862C13.3298 11.1866 13.0817 11.4457 12.7843 11.6449C12.4868 11.8441 12.1473 11.9785 11.7896 12.0382C11.4318 12.0979 11.0648 12.0814 10.7144 11.99C10.3641 11.8986 10.0392 11.7345 9.76239 11.5097C9.48562 11.285 9.26372 11.005 9.11175 10.6898C8.9598 10.3747 8.88131 10.0316 8.88149 9.68469V9.68458M13.5834 8.61449L8.88149 9.68458M1.87809 8.88348C1.91241 8.79114 1.95275 8.70094 1.99888 8.61342L1.99916 8.61357L2.00385 8.60329L4.32622 3.50883L4.32623 3.50884L4.32677 3.50763C4.33826 3.48196 4.35491 3.4582 4.37616 3.43778L4.37644 3.43752C4.52378 3.29542 4.69909 3.18233 4.89254 3.10506C5.08601 3.02778 5.2936 2.98792 5.5034 2.98792C5.71321 2.98792 5.9208 3.02778 6.11426 3.10506C6.30768 3.18232 6.48298 3.29539 6.6303 3.43746L1.87809 8.88348ZM1.87809 8.88348C1.75687 9.21052 1.71135 9.5589 1.74454 9.90436M1.87809 8.88348L1.74454 9.90436M8.88149 9.68458V5.80802V5.61111M8.88149 9.68458V5.61111M8.88149 5.61111H8.68459M8.88149 5.61111H8.68459M8.68459 5.61111H6.89772H6.70081M8.68459 5.61111H6.70081M6.70081 5.61111V5.80802M6.70081 5.61111V5.80802M6.70081 5.80802V9.68458V9.6846M6.70081 5.80802V9.6846M6.70081 9.6846C6.70085 10.0315 6.62223 10.3745 6.47017 10.6896M6.70081 9.6846L6.47017 10.6896M6.70081 3.60053V3.60037C6.70084 3.57067 6.6948 3.54108 6.68286 3.51322C6.67092 3.48536 6.6532 3.45958 6.63036 3.43752L6.70081 3.60053ZM6.70081 3.60053V4.94656V5.14346M6.70081 3.60053V5.14346M6.70081 5.14346H6.89772M6.70081 5.14346H6.89772M6.89772 5.14346H8.68459H8.88149M6.89772 5.14346H8.88149M8.88149 5.14346V4.94656M8.88149 5.14346V4.94656M8.88149 4.94656L8.88149 3.60088M8.88149 4.94656L8.88149 3.60088M6.47017 10.6896C6.3181 11.0047 6.09613 11.2845 5.81932 11.5091M6.47017 10.6896L5.81932 11.5091M5.81932 11.5091C5.54249 11.7338 5.21759 11.8978 4.86725 11.9891M5.81932 11.5091L4.86725 11.9891M4.86725 11.9891C4.5169 12.0804 4.14995 12.0968 3.79223 12.037M4.86725 11.9891L3.79223 12.037M3.79223 12.037C3.43452 11.9773 3.09511 11.8429 2.79771 11.6436M3.79223 12.037L2.79771 11.6436M2.79771 11.6436C2.50033 11.4444 2.25231 11.1853 2.07058 10.8849M2.79771 11.6436L2.07058 10.8849M2.07058 10.8849C1.88888 10.5845 1.77773 10.2498 1.74454 9.90436M2.07058 10.8849L1.74454 9.90436M8.88149 3.60088C8.88149 3.60081 8.88149 3.60074 8.88149 3.60067M8.88149 3.60088L8.88149 3.60067M8.88149 3.60067C8.88166 3.54129 8.9061 3.48288 8.95194 3.43859L8.88149 3.60067ZM6.89772 4.94656H7.09462L6.86383 3.43562C6.88625 3.48791 6.89776 3.54395 6.89772 3.60053V4.74965V4.94656Z" stroke="black" stroke-width="0.39381"/>
</g>
<defs>
<clipPath id="clip0_511_1029">
<rect x="0.643555" y="0.638672" width="14.295" height="13.7833" rx="6.89167" fill="white"/>
</clipPath>
</defs>
</svg>
