<svg width="12" height="24" viewBox="0 0 12 24" fill="none" xmlns="http://www.w3.org/2000/svg">
<path d="M10.8956 0.360525H7.47727C3.12358 0.316963 2.56752 3.01143 2.56752 5.92756V8.04803H0.645644C0.558779 8.03642 0.470408 8.045 0.387396 8.07309C0.304383 8.10118 0.228964 8.14803 0.166995 8.21C0.105026 8.27197 0.0581769 8.34739 0.0300854 8.4304C0.00199385 8.51341 -0.0065836 8.60178 0.00501943 8.68865V12.5324C-0.0065836 12.6193 0.00199385 12.7076 0.0300854 12.7906C0.0581769 12.8737 0.105026 12.9491 0.166995 13.0111C0.228964 13.073 0.304383 13.1199 0.387396 13.148C0.470408 13.1761 0.558779 13.1846 0.645644 13.173H2.56752V22.7824C2.55684 22.8694 2.5662 22.9577 2.59487 23.0406C2.62354 23.1234 2.67077 23.1986 2.73295 23.2605C2.79513 23.3223 2.87062 23.369 2.95364 23.3972C3.03667 23.4254 3.12503 23.4342 3.21199 23.423H7.12621C7.50418 23.4666 7.81039 23.1604 7.68996 22.7824L7.69252 13.173H10.8956C10.9825 13.1846 11.0709 13.1761 11.1539 13.148C11.2369 13.1199 11.3123 13.073 11.3743 13.0111C11.4363 12.9491 11.4831 12.8737 11.5112 12.7906C11.5393 12.7076 11.5479 12.6193 11.5363 12.5324V8.68865C11.5479 8.60178 11.5393 8.51341 11.5112 8.4304C11.4831 8.34739 11.4363 8.27197 11.3743 8.21C11.3123 8.14803 11.2369 8.10118 11.1539 8.07309C11.0709 8.045 10.9825 8.03642 10.8956 8.04803H7.68868L7.69252 6.12615C7.8168 5.30743 7.8168 5.44068 8.57658 5.48553H10.8687C11.0468 5.44581 11.2365 5.46759 11.3697 5.33818C11.503 5.20878 11.5798 5.03196 11.535 4.8449V1.00115C11.5468 0.914355 11.5384 0.826001 11.5105 0.742975C11.4826 0.659949 11.4359 0.584494 11.374 0.522492C11.3121 0.460489 11.2367 0.413613 11.1538 0.38552C11.0708 0.357426 10.9825 0.348872 10.8956 0.360525ZM10.2102 4.13253L8.60349 4.07102C6.61371 4.07102 6.44714 5.15112 6.44714 6.25684L6.44202 8.68609C6.44185 8.77604 6.45942 8.86515 6.49373 8.94831C6.52804 9.03146 6.57841 9.10704 6.64196 9.17071C6.70551 9.23438 6.78099 9.28489 6.86408 9.31935C6.94718 9.35382 7.03625 9.37156 7.12621 9.37156H10.255V11.8469H7.12877C6.94719 11.8469 6.77304 11.919 6.64452 12.0472C6.51601 12.1755 6.44364 12.3495 6.4433 12.5311L6.44202 22.1418H3.84877V12.5324C3.84877 12.1544 3.59124 11.8482 3.21199 11.8482H1.28627V9.37284H3.21199C3.30189 9.37297 3.39093 9.35539 3.47404 9.3211C3.55714 9.2868 3.63266 9.23646 3.6963 9.17296C3.82443 9.04356 3.84749 8.86931 3.84749 8.68737V5.92627C3.84749 3.05371 4.42789 1.68534 7.47599 1.68534H10.2089L10.2102 4.13253Z" fill="white"/>
</svg>
