<svg width="30" height="30" viewBox="0 0 30 30" fill="none" xmlns="http://www.w3.org/2000/svg">
<path d="M22.7749 17.9704L26.6127 21.8082C26.7355 21.931 26.8329 22.0767 26.8993 22.2371C26.9658 22.3975 27 22.5694 27 22.743C27 22.9167 26.9658 23.0886 26.8993 23.249C26.8329 23.4094 26.7355 23.5551 26.6127 23.6779C25.263 25.0274 23.4718 25.8448 21.568 25.9801C19.6642 26.1153 17.7755 25.5593 16.2486 24.4141L13.9659 22.701C11.4389 20.8059 9.19413 18.5611 7.29899 16.0341L5.58588 13.7514C4.4407 12.2245 3.8847 10.3358 4.01994 8.43198C4.15519 6.52815 4.97261 4.73699 6.32214 3.38731C6.44489 3.26452 6.59062 3.16712 6.75102 3.10066C6.91142 3.03421 7.08334 3 7.25696 3C7.43058 3 7.6025 3.03421 7.76289 3.10066C7.92329 3.16712 8.06903 3.26452 8.19177 3.38731L12.0296 7.22512C12.3013 7.49691 12.4539 7.86549 12.4539 8.2498C12.4539 8.63411 12.3013 9.00268 12.0296 9.27447L10.5498 10.7542C10.4349 10.8689 10.359 11.0169 10.333 11.1772C10.307 11.3375 10.3322 11.5018 10.4049 11.647C12.1246 15.0865 14.9135 17.8754 18.353 19.5951C18.4981 19.6678 18.6625 19.693 18.8228 19.667C18.9831 19.6409 19.1311 19.5651 19.2458 19.4502L20.7241 17.9719C20.8587 17.8371 21.0185 17.7302 21.1945 17.6573C21.3704 17.5843 21.559 17.5468 21.7495 17.5468C21.9399 17.5468 22.1285 17.5843 22.3045 17.6573C22.4804 17.7302 22.6403 17.8371 22.7749 17.9719V17.9704Z" stroke="#A70024" stroke-width="1.44932"/>
</svg>
