<svg width="30" height="30" viewBox="0 0 30 30" fill="none" xmlns="http://www.w3.org/2000/svg">
<path d="M14.5 10.44C13.4992 10.44 12.5209 10.7368 11.6888 11.2928C10.8567 11.8488 10.2081 12.639 9.82517 13.5636C9.44219 14.4882 9.34198 15.5056 9.53723 16.4872C9.73247 17.4687 10.2144 18.3703 10.922 19.078C11.6297 19.7856 12.5313 20.2675 13.5128 20.4628C14.4944 20.658 15.5118 20.5578 16.4364 20.1748C17.361 19.7919 18.1512 19.1433 18.7072 18.3112C19.2632 17.4791 19.56 16.5008 19.56 15.5C19.5585 14.1585 19.0249 12.8723 18.0763 11.9237C17.1277 10.9751 15.8415 10.4415 14.5 10.44ZM14.5 19.64C13.6812 19.64 12.8808 19.3972 12.1999 18.9423C11.5191 18.4874 10.9885 17.8408 10.6751 17.0843C10.3618 16.3278 10.2798 15.4954 10.4395 14.6923C10.5993 13.8892 10.9936 13.1516 11.5726 12.5726C12.1516 11.9936 12.8892 11.5993 13.6923 11.4395C14.4954 11.2798 15.3278 11.3618 16.0843 11.6751C16.8408 11.9885 17.4874 12.5191 17.9423 13.1999C18.3972 13.8808 18.64 14.6812 18.64 15.5C18.64 16.598 18.2038 17.651 17.4274 18.4274C16.651 19.2038 15.598 19.64 14.5 19.64ZM20.02 4H8.98C7.39457 4.00183 5.87459 4.63245 4.75352 5.75352C3.63245 6.87459 3.00183 8.39457 3 9.98V21.02C3.00183 22.6054 3.63245 24.1254 4.75352 25.2465C5.87459 26.3676 7.39457 26.9982 8.98 27H20.02C21.6054 26.9982 23.1254 26.3676 24.2465 25.2465C25.3676 24.1254 25.9982 22.6054 26 21.02V9.98C25.9982 8.39457 25.3676 6.87459 24.2465 5.75352C23.1254 4.63245 21.6054 4.00183 20.02 4ZM25.08 21.02C25.0785 22.3615 24.5449 23.6477 23.5963 24.5963C22.6477 25.5449 21.3615 26.0785 20.02 26.08H8.98C7.63847 26.0785 6.35232 25.5449 5.40372 24.5963C4.45512 23.6477 3.92152 22.3615 3.92 21.02V9.98C3.92152 8.63847 4.45512 7.35232 5.40372 6.40372C6.35232 5.45512 7.63847 4.92152 8.98 4.92H20.02C21.3615 4.92152 22.6477 5.45512 23.5963 6.40372C24.5449 7.35232 25.0785 8.63847 25.08 9.98V21.02ZM21.4 9.52C21.4 9.70196 21.346 9.87983 21.245 10.0311C21.1439 10.1824 21.0002 10.3003 20.8321 10.37C20.664 10.4396 20.479 10.4578 20.3005 10.4223C20.1221 10.3868 19.9581 10.2992 19.8295 10.1705C19.7008 10.0419 19.6132 9.87794 19.5777 9.69948C19.5422 9.52102 19.5604 9.33604 19.63 9.16793C19.6997 8.99982 19.8176 8.85614 19.9689 8.75505C20.1202 8.65396 20.298 8.6 20.48 8.6C20.724 8.6 20.958 8.69693 21.1305 8.86946C21.3031 9.042 21.4 9.276 21.4 9.52Z" fill="#A70024" stroke="#A70024" stroke-width="0.8"/>
</svg>
