<svg width="30" height="30" viewBox="0 0 30 30" fill="none" xmlns="http://www.w3.org/2000/svg">
<path d="M5.15333 25C4.54 25 4.028 24.791 3.61733 24.373C3.20578 23.9541 3 23.4325 3 22.8082V8.19179C3 7.5675 3.20578 7.04636 3.61733 6.62836C4.028 6.20945 4.54 6 5.15333 6H24.8467C25.46 6 25.972 6.20945 26.3827 6.62836C26.7942 7.04636 27 7.5675 27 8.19179V22.8082C27 23.4325 26.7947 23.9536 26.384 24.3716C25.9724 24.7905 25.46 25 24.8467 25H5.15333ZM15 15.6561L4.33333 8.55821V22.8082C4.33333 23.0516 4.41022 23.2515 4.564 23.4081C4.71778 23.5646 4.91422 23.6429 5.15333 23.6429H24.8467C25.0858 23.6429 25.2822 23.5646 25.436 23.4081C25.5898 23.2515 25.6667 23.0516 25.6667 22.8082V8.55821L15 15.6561ZM15 14.1429L25.256 7.35714H4.744L15 14.1429ZM4.33333 8.55821V7.35714V22.8082C4.33333 23.0516 4.41022 23.2515 4.564 23.4081C4.71778 23.5646 4.91422 23.6429 5.15333 23.6429H4.33333V8.55821Z" fill="#A70024"/>
</svg>
