<svg width="30" height="30" viewBox="0 0 30 30" fill="none" xmlns="http://www.w3.org/2000/svg">
<path d="M20.2658 2.0057H16.4176C11.5164 1.95661 10.8904 4.99299 10.8904 8.27915V10.6687H8.72684C8.62905 10.6556 8.52956 10.6653 8.43611 10.6969C8.34266 10.7286 8.25776 10.7814 8.188 10.8512C8.11823 10.9211 8.06549 11.006 8.03387 11.0996C8.00224 11.1931 7.99259 11.2927 8.00565 11.3906V15.7221C7.99259 15.82 8.00224 15.9196 8.03387 16.0131C8.06549 16.1067 8.11823 16.1917 8.188 16.2615C8.25776 16.3313 8.34266 16.3841 8.43611 16.4158C8.52956 16.4474 8.62905 16.4571 8.72684 16.444H10.8904V27.2728C10.8784 27.3708 10.8889 27.4704 10.9212 27.5637C10.9535 27.6571 11.0066 27.7418 11.0766 27.8115C11.1466 27.8811 11.2316 27.9339 11.3251 27.9656C11.4185 27.9974 11.518 28.0073 11.6159 27.9947H16.0224C16.4479 28.0438 16.7926 27.6987 16.657 27.2728L16.6599 16.444H20.2658C20.3636 16.4571 20.4631 16.4474 20.5565 16.4158C20.65 16.3841 20.7349 16.3313 20.8047 16.2615C20.8744 16.1917 20.9272 16.1067 20.9588 16.0131C20.9904 15.9196 21.0001 15.82 20.987 15.7221V11.3906C21.0001 11.2927 20.9904 11.1931 20.9588 11.0996C20.9272 11.006 20.8744 10.9211 20.8047 10.8512C20.7349 10.7814 20.65 10.7286 20.5565 10.6969C20.4631 10.6653 20.3636 10.6556 20.2658 10.6687H16.6556L16.6599 8.50295C16.7998 7.58034 16.7998 7.7305 17.6551 7.78103H20.2355C20.436 7.73627 20.6495 7.76082 20.7995 7.61499C20.9495 7.46916 21.036 7.26991 20.9856 7.05911V2.72761C20.9989 2.62981 20.9894 2.53024 20.958 2.43668C20.9266 2.34312 20.874 2.25809 20.8043 2.18822C20.7346 2.11835 20.6498 2.06552 20.5564 2.03386C20.463 2.00221 20.3635 1.99257 20.2658 2.0057ZM19.4941 6.25634L17.6854 6.18704C15.4454 6.18704 15.2579 7.40419 15.2579 8.65022L15.2521 11.3877C15.2519 11.4891 15.2717 11.5895 15.3103 11.6832C15.349 11.7769 15.4057 11.8621 15.4772 11.9338C15.5488 12.0056 15.6337 12.0625 15.7273 12.1013C15.8208 12.1402 15.9211 12.1602 16.0224 12.1602H19.5446V14.9497H16.0252C15.8208 14.9497 15.6248 15.0308 15.4801 15.1754C15.3354 15.3199 15.2539 15.5161 15.2536 15.7207L15.2521 26.5509H12.3328V15.7221C12.3328 15.2962 12.0428 14.9511 11.6159 14.9511H9.44802V12.1616H11.6159C11.7171 12.1618 11.8174 12.142 11.9109 12.1033C12.0045 12.0647 12.0895 12.0079 12.1611 11.9364C12.3054 11.7906 12.3313 11.5942 12.3313 11.3892V8.27771C12.3313 5.04063 12.9847 3.49862 16.4161 3.49862H19.4927L19.4941 6.25634Z" fill="#A70024"/>
</svg>
