<svg width="30" height="30" viewBox="0 0 30 30" fill="none" xmlns="http://www.w3.org/2000/svg">
<path d="M8.53401 11.0547H4.02666C3.87723 11.0547 3.73392 11.1153 3.62826 11.2231C3.5226 11.3309 3.46324 11.4771 3.46324 11.6295V25.4252C3.46324 25.5776 3.5226 25.7238 3.62826 25.8316C3.73392 25.9394 3.87723 26 4.02666 26H8.53401C8.68344 26 8.82674 25.9394 8.93241 25.8316C9.03807 25.7238 9.09743 25.5776 9.09743 25.4252V11.6295C9.09743 11.4771 9.03807 11.3309 8.93241 11.2231C8.82674 11.1153 8.68344 11.0547 8.53401 11.0547ZM7.97059 24.8504H4.59008V12.2044H7.97059V24.8504ZM20.3658 11.0547C19.1432 11.0547 17.9544 11.4663 16.9853 12.2262V11.6295C16.9853 11.4771 16.9259 11.3309 16.8203 11.2231C16.7146 11.1153 16.5713 11.0547 16.4219 11.0547H11.9145C11.7651 11.0547 11.6218 11.1153 11.5161 11.2231C11.4105 11.3309 11.3511 11.4771 11.3511 11.6295V25.4252C11.3511 25.5776 11.4105 25.7238 11.5161 25.8316C11.6218 25.9394 11.7651 26 11.9145 26H16.4219C16.5713 26 16.7146 25.9394 16.8203 25.8316C16.9259 25.7238 16.9853 25.5776 16.9853 25.4252V19.1022C16.9853 18.6448 17.1634 18.2062 17.4804 17.8828C17.7973 17.5594 18.2273 17.3777 18.6756 17.3777C19.1238 17.3777 19.5538 17.5594 19.8707 17.8828C20.1877 18.2062 20.3658 18.6448 20.3658 19.1022V25.4252C20.3658 25.5776 20.4252 25.7238 20.5308 25.8316C20.6365 25.9394 20.7798 26 20.9292 26H25.4366C25.586 26 25.7293 25.9394 25.835 25.8316C25.9406 25.7238 26 25.5776 26 25.4252V16.8029C25.9982 15.279 25.404 13.8179 24.3478 12.7403C23.2916 11.6627 21.8595 11.0565 20.3658 11.0547ZM24.8732 24.8504H21.4926V19.1022C21.4926 18.3399 21.1958 17.6089 20.6675 17.0699C20.1392 16.5309 19.4227 16.2281 18.6756 16.2281C17.9284 16.2281 17.2119 16.5309 16.6836 17.0699C16.1553 17.6089 15.8585 18.3399 15.8585 19.1022V24.8504H12.4779V12.2044H15.8585V13.5874C15.8584 13.7064 15.8946 13.8226 15.9621 13.9197C16.0295 14.0169 16.1249 14.0903 16.235 14.1298C16.345 14.1693 16.4644 14.1729 16.5766 14.1402C16.6888 14.1075 16.7883 14.0401 16.8613 13.9472C17.44 13.1989 18.2331 12.6534 19.1301 12.3869C20.0271 12.1204 20.9833 12.1462 21.8653 12.4605C22.7473 12.7749 23.5111 13.3623 24.0503 14.1407C24.5895 14.9191 24.8772 15.8497 24.8732 16.8029V24.8504ZM6.69501 3.00957C6.56261 3.00005 6.42974 2.99928 6.29724 3.00727C5.87554 2.97799 5.45244 3.03737 5.05415 3.18171C4.65585 3.32606 4.29085 3.5523 3.98175 3.84642C3.67265 4.14054 3.42604 4.49628 3.25718 4.8916C3.08833 5.28692 3.00083 5.7134 3.00011 6.14463C2.99661 6.57134 3.07907 6.99425 3.24238 7.38711C3.40569 7.77998 3.64636 8.13442 3.94948 8.42848C4.2526 8.72253 4.6117 8.94991 5.0045 9.09654C5.39731 9.24316 5.81546 9.30589 6.23301 9.28083H6.26456C6.66817 9.30967 7.07339 9.25712 7.4571 9.12618C7.8408 8.99524 8.19547 8.78848 8.50085 8.51769C8.80623 8.24691 9.05635 7.91742 9.23692 7.54802C9.41749 7.17862 9.52497 6.77656 9.55323 6.36478C9.5815 5.953 9.52999 5.53958 9.40164 5.14811C9.2733 4.75664 9.07064 4.3948 8.80523 4.08324C8.53982 3.77168 8.21686 3.5165 7.85478 3.33228C7.49271 3.14806 7.09862 3.0384 6.69501 3.00957ZM6.65557 8.13465C6.52544 8.14672 6.39446 8.14556 6.26456 8.1312H6.23301C5.96181 8.152 5.68934 8.11487 5.43299 8.0222C5.17665 7.92953 4.94206 7.78334 4.74421 7.59296C4.54635 7.40259 4.38958 7.17222 4.2839 6.91656C4.17822 6.6609 4.12596 6.38557 4.13044 6.10814C4.13492 5.83071 4.19606 5.55729 4.30994 5.30532C4.42383 5.05335 4.58796 4.82838 4.79185 4.64477C4.99575 4.46115 5.23494 4.32294 5.49414 4.23893C5.75334 4.15493 6.02686 4.12699 6.29724 4.1569C6.81426 4.10842 7.32898 4.27147 7.72817 4.61018C8.12736 4.94888 8.37831 5.4355 8.42583 5.96298C8.47335 6.49046 8.31354 7.0156 7.98155 7.42287C7.64956 7.83013 7.17259 8.08617 6.65557 8.13465Z" fill="#A70024"/>
</svg>
