<svg width="30" height="30" viewBox="0 0 30 30" fill="none" xmlns="http://www.w3.org/2000/svg">
<path d="M15.5 9.44C14.4992 9.44 13.5209 9.73676 12.6888 10.2928C11.8567 10.8488 11.2081 11.639 10.8252 12.5636C10.4422 13.4882 10.342 14.5056 10.5372 15.4872C10.7325 16.4687 11.2144 17.3703 11.922 18.078C12.6297 18.7856 13.5313 19.2675 14.5128 19.4628C15.4944 19.658 16.5118 19.5578 17.4364 19.1748C18.361 18.7918 19.1512 18.1433 19.7072 17.3112C20.2632 16.4791 20.56 15.5008 20.56 14.5C20.5585 13.1585 20.0249 11.8723 19.0763 10.9237C18.1277 9.97512 16.8415 9.44152 15.5 9.44ZM15.5 18.64C14.6812 18.64 13.8808 18.3972 13.1999 17.9423C12.5191 17.4874 11.9885 16.8408 11.6751 16.0843C11.3618 15.3278 11.2798 14.4954 11.4395 13.6923C11.5993 12.8892 11.9936 12.1516 12.5726 11.5726C13.1516 10.9936 13.8892 10.5993 14.6923 10.4395C15.4954 10.2798 16.3278 10.3618 17.0843 10.6751C17.8408 10.9885 18.4874 11.5191 18.9423 12.1999C19.3972 12.8808 19.64 13.6812 19.64 14.5C19.64 15.598 19.2038 16.651 18.4274 17.4274C17.651 18.2038 16.598 18.64 15.5 18.64ZM21.02 3H9.98C8.39457 3.00183 6.87459 3.63245 5.75352 4.75352C4.63245 5.87459 4.00183 7.39457 4 8.98V20.02C4.00183 21.6054 4.63245 23.1254 5.75352 24.2465C6.87459 25.3676 8.39457 25.9982 9.98 26H21.02C22.6054 25.9982 24.1254 25.3676 25.2465 24.2465C26.3676 23.1254 26.9982 21.6054 27 20.02V8.98C26.9982 7.39457 26.3676 5.87459 25.2465 4.75352C24.1254 3.63245 22.6054 3.00183 21.02 3ZM26.08 20.02C26.0785 21.3615 25.5449 22.6477 24.5963 23.5963C23.6477 24.5449 22.3615 25.0785 21.02 25.08H9.98C8.63847 25.0785 7.35232 24.5449 6.40372 23.5963C5.45512 22.6477 4.92152 21.3615 4.92 20.02V8.98C4.92152 7.63847 5.45512 6.35232 6.40372 5.40372C7.35232 4.45512 8.63847 3.92152 9.98 3.92H21.02C22.3615 3.92152 23.6477 4.45512 24.5963 5.40372C25.5449 6.35232 26.0785 7.63847 26.08 8.98V20.02ZM22.4 8.52C22.4 8.70196 22.346 8.87983 22.245 9.03112C22.1439 9.18242 22.0002 9.30034 21.8321 9.36997C21.664 9.4396 21.479 9.45782 21.3005 9.42232C21.1221 9.38682 20.9581 9.2992 20.8295 9.17054C20.7008 9.04187 20.6132 8.87795 20.5777 8.69948C20.5422 8.52102 20.5604 8.33604 20.63 8.16793C20.6997 7.99982 20.8176 7.85614 20.9689 7.75505C21.1202 7.65396 21.298 7.6 21.48 7.6C21.724 7.6 21.958 7.69693 22.1305 7.86946C22.3031 8.042 22.4 8.276 22.4 8.52Z" fill="#A70024"/>
</svg>
