<svg width="30" height="30" viewBox="0 0 30 30" fill="none" xmlns="http://www.w3.org/2000/svg">
<path d="M15 9.28C13.8687 9.28 12.7628 9.61547 11.8221 10.244C10.8815 10.8725 10.1483 11.7659 9.71541 12.8111C9.28248 13.8562 9.1692 15.0063 9.38991 16.1159C9.61062 17.2255 10.1554 18.2447 10.9553 19.0447C11.7553 19.8446 12.7745 20.3894 13.8841 20.6101C14.9937 20.8308 16.1438 20.7175 17.1889 20.2846C18.2341 19.8517 19.1275 19.1185 19.756 18.1779C20.3845 17.2372 20.72 16.1313 20.72 15C20.7183 13.4835 20.1151 12.0296 19.0428 10.9572C17.9704 9.88491 16.5165 9.28172 15 9.28ZM15 19.68C14.0744 19.68 13.1696 19.4055 12.3999 18.8913C11.6303 18.377 11.0305 17.6461 10.6762 16.791C10.322 15.9358 10.2293 14.9948 10.4099 14.087C10.5905 13.1791 11.0362 12.3453 11.6907 11.6907C12.3453 11.0362 13.1791 10.5905 14.087 10.4099C14.9948 10.2293 15.9358 10.322 16.791 10.6762C17.6461 11.0305 18.377 11.6303 18.8913 12.3999C19.4055 13.1696 19.68 14.0744 19.68 15C19.68 16.2412 19.1869 17.4316 18.3093 18.3093C17.4316 19.1869 16.2412 19.68 15 19.68ZM21.24 2H8.76C6.96777 2.00206 5.24954 2.71494 3.98224 3.98224C2.71494 5.24954 2.00206 6.96777 2 8.76V21.24C2.00206 23.0322 2.71494 24.7505 3.98224 26.0178C5.24954 27.2851 6.96777 27.9979 8.76 28H21.24C23.0322 27.9979 24.7505 27.2851 26.0178 26.0178C27.2851 24.7505 27.9979 23.0322 28 21.24V8.76C27.9979 6.96777 27.2851 5.24954 26.0178 3.98224C24.7505 2.71494 23.0322 2.00206 21.24 2ZM26.96 21.24C26.9583 22.7565 26.3551 24.2104 25.2828 25.2828C24.2104 26.3551 22.7565 26.9583 21.24 26.96H8.76C7.24349 26.9583 5.78958 26.3551 4.71725 25.2828C3.64491 24.2104 3.04172 22.7565 3.04 21.24V8.76C3.04172 7.24349 3.64491 5.78958 4.71725 4.71725C5.78958 3.64491 7.24349 3.04172 8.76 3.04H21.24C22.7565 3.04172 24.2104 3.64491 25.2828 4.71725C26.3551 5.78958 26.9583 7.24349 26.96 8.76V21.24ZM22.8 8.24C22.8 8.44569 22.739 8.64677 22.6247 8.81779C22.5105 8.98882 22.348 9.12212 22.158 9.20083C21.968 9.27955 21.7588 9.30015 21.5571 9.26002C21.3554 9.21989 21.1701 9.12084 21.0246 8.97539C20.8792 8.82994 20.7801 8.64463 20.74 8.44289C20.6999 8.24115 20.7204 8.03204 20.7992 7.84201C20.8779 7.65197 21.0112 7.48955 21.1822 7.37527C21.3532 7.26099 21.5543 7.2 21.76 7.2C22.0358 7.2 22.3004 7.30957 22.4954 7.50461C22.6904 7.69965 22.8 7.96417 22.8 8.24Z" fill="#A70024"/>
</svg>
