<svg width="30" height="30" viewBox="0 0 30 30" fill="none" xmlns="http://www.w3.org/2000/svg">
<path d="M19.2093 1.00613H15.0651C9.78688 0.953317 9.11273 4.21996 9.11273 7.75532V10.3261H6.78275C6.67744 10.312 6.5703 10.3224 6.46966 10.3565C6.36902 10.3905 6.27758 10.4473 6.20246 10.5224C6.12733 10.5976 6.07053 10.689 6.03647 10.7896C6.00242 10.8903 5.99202 10.9974 6.00609 11.1027V15.7627C5.99202 15.868 6.00242 15.9751 6.03647 16.0758C6.07053 16.1764 6.12733 16.2679 6.20246 16.343C6.27758 16.4181 6.36902 16.4749 6.46966 16.509C6.5703 16.543 6.67744 16.5534 6.78275 16.5394H9.11273V28.1893C9.09979 28.2948 9.11113 28.4018 9.14589 28.5023C9.18065 28.6027 9.23791 28.6939 9.3133 28.7689C9.38868 28.8438 9.48019 28.9005 9.58085 28.9347C9.6815 28.9688 9.78863 28.9795 9.89405 28.9659H14.6395C15.0977 29.0188 15.4689 28.6475 15.3229 28.1893L15.326 16.5394H19.2093C19.3146 16.5534 19.4218 16.543 19.5224 16.509C19.6231 16.4749 19.7145 16.4181 19.7896 16.343C19.8648 16.2679 19.9215 16.1764 19.9556 16.0758C19.9897 15.9751 20.0001 15.868 19.986 15.7627V11.1027C20.0001 10.9974 19.9897 10.8903 19.9556 10.7896C19.9215 10.689 19.8648 10.5976 19.7896 10.5224C19.7145 10.4473 19.6231 10.3905 19.5224 10.3565C19.4218 10.3224 19.3146 10.312 19.2093 10.3261H15.3214L15.326 7.99608C15.4767 7.00351 15.4767 7.16506 16.3978 7.21942H19.1767C19.3926 7.17127 19.6225 7.19768 19.7841 7.04079C19.9456 6.8839 20.0388 6.66955 19.9844 6.44276V1.78279C19.9988 1.67757 19.9886 1.57045 19.9548 1.46979C19.9209 1.36914 19.8643 1.27766 19.7892 1.20249C19.7142 1.12732 19.6229 1.07049 19.5223 1.03643C19.4217 1.00237 19.3146 0.992002 19.2093 1.00613ZM18.3783 5.57911L16.4304 5.50455C14.0181 5.50455 13.8162 6.81401 13.8162 8.15452L13.81 11.0996C13.8098 11.2087 13.8311 11.3167 13.8727 11.4175C13.9143 11.5183 13.9753 11.61 14.0524 11.6872C14.1294 11.7643 14.2209 11.8256 14.3217 11.8674C14.4224 11.9091 14.5304 11.9307 14.6395 11.9307H18.4327V14.9317H14.6426C14.4224 14.9317 14.2113 15.019 14.0555 15.1745C13.8997 15.33 13.8119 15.541 13.8115 15.7611L13.81 27.4126H10.6661V15.7627C10.6661 15.3045 10.3538 14.9332 9.89405 14.9332H7.55941V11.9322H9.89405C10.003 11.9324 10.111 11.9111 10.2117 11.8695C10.3125 11.8279 10.4041 11.7669 10.4812 11.6899C10.6365 11.533 10.6645 11.3217 10.6645 11.1012V7.75377C10.6645 4.27121 11.3682 2.61227 15.0635 2.61227H18.3768L18.3783 5.57911Z" fill="#A70024"/>
</svg>
