<svg width="41" height="41" viewBox="0 0 41 41" fill="none" xmlns="http://www.w3.org/2000/svg">
<path d="M33.3529 17.5149C32.9501 14.6139 31.6055 11.9259 29.5262 9.86502C27.4469 7.80411 24.7483 6.48462 21.846 6.10981C18.9438 5.73499 15.9989 6.32565 13.465 7.79078C10.9312 9.25591 8.94888 11.5142 7.82353 14.2179M7 7.62388V14.2179H13.5882M7 20.8119C7.77082 26.7466 12.5736 31.6031 18.5294 32.3515M30.0588 24.109H33.3529C33.7898 24.109 34.2087 24.2826 34.5176 24.5918C34.8265 24.9009 35 25.3203 35 25.7575V27.406C35 27.8432 34.8265 28.2625 34.5176 28.5716C34.2087 28.8808 33.7898 29.0545 33.3529 29.0545H31.7059C31.2691 29.0545 30.8501 29.2282 30.5412 29.5373C30.2324 29.8465 30.0588 30.2658 30.0588 30.703V32.3515C30.0588 32.7887 30.2324 33.208 30.5412 33.5172C30.8501 33.8263 31.2691 34 31.7059 34H35M25.1176 34V24.109" stroke="#A70024" stroke-width="2.27704" stroke-linecap="round" stroke-linejoin="round"/>
</svg>
