<svg width="27" height="26" viewBox="0 0 27 26" fill="none" xmlns="http://www.w3.org/2000/svg">
<path d="M13.4111 7.21875C12.2893 7.21875 11.1927 7.5514 10.26 8.17463C9.32727 8.79787 8.6003 9.68369 8.171 10.7201C7.74171 11.7565 7.62939 12.8969 7.84824 13.9972C8.06709 15.0974 8.60729 16.108 9.40051 16.9012C10.1937 17.6945 11.2044 18.2347 12.3046 18.4535C13.4048 18.6724 14.5453 18.56 15.5817 18.1308C16.6181 17.7015 17.5039 16.9745 18.1271 16.0417C18.7504 15.109 19.083 14.0124 19.083 12.8906C19.0813 11.3869 18.4832 9.9452 17.4199 8.88189C16.3566 7.81857 14.9149 7.22046 13.4111 7.21875ZM13.4111 17.5312C12.4933 17.5312 11.5961 17.2591 10.8329 16.7492C10.0698 16.2392 9.47499 15.5145 9.12375 14.6665C8.77252 13.8186 8.68062 12.8855 8.85968 11.9853C9.03874 11.0851 9.48071 10.2582 10.1297 9.60921C10.7787 8.96021 11.6056 8.51823 12.5058 8.33917C13.406 8.16011 14.3391 8.25201 15.187 8.60325C16.035 8.95448 16.7598 9.54928 17.2697 10.3124C17.7796 11.0756 18.0518 11.9728 18.0518 12.8906C18.0518 14.1214 17.5628 15.3018 16.6926 16.172C15.8223 17.0423 14.6419 17.5312 13.4111 17.5312ZM19.5986 0H7.22363C5.44648 0.00204702 3.7427 0.708924 2.48607 1.96556C1.22943 3.2222 0.522555 4.92597 0.520508 6.70312V19.0781C0.522555 20.8553 1.22943 22.5591 2.48607 23.8157C3.7427 25.0723 5.44648 25.7792 7.22363 25.7812H19.5986C21.3758 25.7792 23.0796 25.0723 24.3362 23.8157C25.5928 22.5591 26.2997 20.8553 26.3018 19.0781V6.70312C26.2997 4.92597 25.5928 3.2222 24.3362 1.96556C23.0796 0.708924 21.3758 0.00204702 19.5986 0ZM25.2705 19.0781C25.2688 20.5819 24.6707 22.0235 23.6074 23.0869C22.5441 24.1502 21.1024 24.7483 19.5986 24.75H7.22363C5.71988 24.7483 4.27821 24.1502 3.2149 23.0869C2.15158 22.0235 1.55346 20.5819 1.55176 19.0781V6.70312C1.55346 5.19937 2.15158 3.7577 3.2149 2.69439C4.27821 1.63107 5.71988 1.03296 7.22363 1.03125H19.5986C21.1024 1.03296 22.5441 1.63107 23.6074 2.69439C24.6707 3.7577 25.2688 5.19937 25.2705 6.70312V19.0781ZM21.1455 6.1875C21.1455 6.39146 21.085 6.59084 20.9717 6.76043C20.8584 6.93002 20.6973 7.0622 20.5089 7.14025C20.3205 7.2183 20.1131 7.23873 19.9131 7.19894C19.713 7.15914 19.5293 7.06093 19.3851 6.9167C19.2408 6.77248 19.1426 6.58873 19.1028 6.38869C19.063 6.18864 19.0835 5.98129 19.1615 5.79286C19.2396 5.60442 19.3717 5.44336 19.5413 5.33005C19.7109 5.21673 19.9103 5.15625 20.1143 5.15625C20.3878 5.15625 20.6501 5.2649 20.8435 5.4583C21.0369 5.65169 21.1455 5.914 21.1455 6.1875Z" fill="white"/>
</svg>
