<svg width="26" height="25" viewBox="0 0 26 25" fill="none" xmlns="http://www.w3.org/2000/svg">
<path d="M6.80258 8.79555H2.0041C1.84502 8.79555 1.69246 8.85875 1.57997 8.97123C1.46749 9.08372 1.40429 9.23628 1.40429 9.39536V23.7908C1.40429 23.9499 1.46749 24.1025 1.57997 24.2149C1.69246 24.3274 1.84502 24.3906 2.0041 24.3906H6.80258C6.96166 24.3906 7.11423 24.3274 7.22671 24.2149C7.3392 24.1025 7.40239 23.9499 7.40239 23.7908V9.39536C7.40239 9.23628 7.3392 9.08372 7.22671 8.97123C7.11423 8.85875 6.96166 8.79555 6.80258 8.79555ZM6.20277 23.191H2.60391V9.99517H6.20277V23.191ZM19.3986 8.79555C18.097 8.79555 16.8314 9.22502 15.7997 10.018V9.39536C15.7997 9.23628 15.7365 9.08372 15.6241 8.97123C15.5116 8.85875 15.359 8.79555 15.1999 8.79555H10.4014C10.2424 8.79555 10.0898 8.85875 9.97732 8.97123C9.86483 9.08372 9.80164 9.23628 9.80164 9.39536V23.7908C9.80164 23.9499 9.86483 24.1025 9.97732 24.2149C10.0898 24.3274 10.2424 24.3906 10.4014 24.3906H15.1999C15.359 24.3906 15.5116 24.3274 15.6241 24.2149C15.7365 24.1025 15.7997 23.9499 15.7997 23.7908V17.1929C15.7997 16.7157 15.9893 16.258 16.3268 15.9205C16.6642 15.5831 17.1219 15.3935 17.5992 15.3935C18.0764 15.3935 18.5341 15.5831 18.8716 15.9205C19.209 16.258 19.3986 16.7157 19.3986 17.1929V23.7908C19.3986 23.9499 19.4618 24.1025 19.5743 24.2149C19.6868 24.3274 19.8393 24.3906 19.9984 24.3906H24.7969C24.956 24.3906 25.1085 24.3274 25.221 24.2149C25.3335 24.1025 25.3967 23.9499 25.3967 23.7908V14.7937C25.3948 13.2034 24.7623 11.6789 23.6378 10.5545C22.5133 9.43001 20.9888 8.79746 19.3986 8.79555ZM24.1971 23.191H20.5982V17.1929C20.5982 16.3975 20.2823 15.6347 19.7198 15.0722C19.1574 14.5098 18.3946 14.1938 17.5992 14.1938C16.8038 14.1938 16.041 14.5098 15.4785 15.0722C14.9161 15.6347 14.6001 16.3975 14.6001 17.1929V23.191H11.0013V9.99517H14.6001V11.4383C14.6001 11.5625 14.6386 11.6837 14.7104 11.7851C14.7822 11.8865 14.8837 11.9631 15.0009 12.0043C15.1181 12.0455 15.2452 12.0493 15.3647 12.0152C15.4841 11.9811 15.59 11.9107 15.6678 11.8138C16.2838 11.0329 17.1282 10.4638 18.0831 10.1857C19.0381 9.90761 20.056 9.93446 20.9949 10.2625C21.9339 10.5905 22.7471 11.2034 23.3211 12.0157C23.8951 12.8279 24.2013 13.7991 24.1971 14.7937V23.191ZM4.8448 0.400607C4.70385 0.390672 4.5624 0.389871 4.42134 0.398208C3.9724 0.367661 3.52197 0.429617 3.09796 0.580237C2.67394 0.730858 2.28536 0.966934 1.9563 1.27384C1.62723 1.58075 1.36469 1.95196 1.18493 2.36447C1.00517 2.77697 0.912015 3.222 0.911247 3.67197C0.907521 4.11725 0.995309 4.55854 1.16917 4.96848C1.34303 5.37843 1.59925 5.74828 1.92194 6.05512C2.24464 6.36196 2.62693 6.59923 3.04511 6.75223C3.46329 6.90522 3.90844 6.97068 4.35296 6.94454H4.38655C4.81623 6.97463 5.24763 6.91979 5.65612 6.78316C6.0646 6.64653 6.44218 6.43077 6.76729 6.14822C7.09239 5.86567 7.35866 5.52184 7.55089 5.13639C7.74312 4.75093 7.85755 4.33138 7.88764 3.9017C7.91773 3.47202 7.86289 3.04062 7.72626 2.63213C7.58963 2.22364 7.37388 1.84607 7.09132 1.52096C6.80877 1.19585 6.46495 0.929584 6.07949 0.737354C5.69403 0.545123 5.27448 0.430697 4.8448 0.400607ZM4.80282 5.74852C4.66428 5.76111 4.52484 5.75991 4.38655 5.74492H4.35296C4.06424 5.76662 3.77418 5.72788 3.50127 5.63118C3.22837 5.53448 2.97863 5.38193 2.768 5.18328C2.55737 4.98464 2.39047 4.74425 2.27796 4.47747C2.16546 4.2107 2.10982 3.92339 2.11459 3.6339C2.11936 3.34441 2.18445 3.0591 2.30569 2.79618C2.42693 2.53325 2.60166 2.2985 2.81872 2.1069C3.03579 1.91531 3.29042 1.77108 3.56637 1.68343C3.84231 1.59577 4.13349 1.56662 4.42134 1.59783C4.97175 1.54724 5.51972 1.71738 5.94469 2.07081C6.36967 2.42424 6.63683 2.93202 6.68742 3.48243C6.73801 4.03285 6.56787 4.58082 6.21444 5.00579C5.86101 5.43076 5.35323 5.69793 4.80282 5.74852Z" fill="white"/>
</svg>
