<svg width="24" height="24" viewBox="0 0 24 24" fill="none" xmlns="http://www.w3.org/2000/svg">
<path d="M11.9998 20.3999L11.6158 19.9679C11.3758 19.7279 5.75977 13.1039 5.75977 9.11988C5.75977 5.66388 8.54377 2.87988 11.9998 2.87988C15.4558 2.87988 18.2398 5.66388 18.2398 9.11988C18.2398 13.1039 12.6238 19.7279 12.3838 20.0159L11.9998 20.3999ZM11.9998 3.83988C9.07177 3.83988 6.71977 6.19188 6.71977 9.11988C6.71977 12.1919 10.7518 17.3759 11.9998 18.9119C13.2478 17.3759 17.2798 12.1919 17.2798 9.11988C17.2798 6.19188 14.9278 3.83988 11.9998 3.83988Z" fill="white"/>
<path d="M12.0001 11.52C10.6561 11.52 9.6001 10.464 9.6001 9.11997C9.6001 7.77597 10.6561 6.71997 12.0001 6.71997C13.3441 6.71997 14.4001 7.77597 14.4001 9.11997C14.4001 10.464 13.3441 11.52 12.0001 11.52ZM12.0001 7.67997C11.1841 7.67997 10.5601 8.30397 10.5601 9.11997C10.5601 9.93597 11.1841 10.56 12.0001 10.56C12.8161 10.56 13.4401 9.93597 13.4401 9.11997C13.4401 8.30397 12.8161 7.67997 12.0001 7.67997Z" fill="white"/>
</svg>
