<svg width="41" height="41" viewBox="0 0 41 41" fill="none" xmlns="http://www.w3.org/2000/svg">
<path d="M7.88396 32.4577C7.09812 32.4577 6.44213 32.1946 5.91596 31.6684C5.38865 31.1411 5.125 30.4846 5.125 29.6987V11.3C5.125 10.5141 5.38865 9.85814 5.91596 9.33197C6.44213 8.80467 7.09812 8.54102 7.88396 8.54102H33.116C33.9019 8.54102 34.5579 8.80467 35.084 9.33197C35.6113 9.85814 35.875 10.5141 35.875 11.3V29.6987C35.875 30.4846 35.6119 31.1406 35.0858 31.6667C34.5584 32.194 33.9019 32.4577 33.116 32.4577H7.88396ZM20.5 20.6958L6.83333 11.7612V29.6987C6.83333 30.0051 6.93185 30.2568 7.12887 30.4538C7.3259 30.6508 7.5776 30.7493 7.88396 30.7493H33.116C33.4224 30.7493 33.6741 30.6508 33.8711 30.4538C34.0682 30.2568 34.1667 30.0051 34.1667 29.6987V11.7612L20.5 20.6958ZM20.5 18.791L33.6405 10.2493H7.3595L20.5 18.791ZM6.83333 11.7612V10.2493V29.6987C6.83333 30.0051 6.93185 30.2568 7.12887 30.4538C7.3259 30.6508 7.5776 30.7493 7.88396 30.7493H6.83333V11.7612Z" fill="#A70024"/>
<path d="M7.88396 32.4577C7.09812 32.4577 6.44213 32.1946 5.91596 31.6684C5.38865 31.1411 5.125 30.4846 5.125 29.6987V11.3C5.125 10.5141 5.38865 9.85814 5.91596 9.33197C6.44213 8.80467 7.09812 8.54102 7.88396 8.54102H33.116C33.9019 8.54102 34.5579 8.80467 35.084 9.33197C35.6113 9.85814 35.875 10.5141 35.875 11.3V29.6987C35.875 30.4846 35.6119 31.1406 35.0858 31.6667C34.5584 32.194 33.9019 32.4577 33.116 32.4577H7.88396ZM20.5 20.6958L6.83333 11.7612V29.6987C6.83333 30.0051 6.93185 30.2568 7.12887 30.4538C7.3259 30.6508 7.5776 30.7493 7.88396 30.7493H33.116C33.4224 30.7493 33.6741 30.6508 33.8711 30.4538C34.0682 30.2568 34.1667 30.0051 34.1667 29.6987V11.7612L20.5 20.6958ZM20.5 18.791L33.6405 10.2493H7.3595L20.5 18.791ZM6.83333 11.7612V10.2493V29.6987C6.83333 30.0051 6.93185 30.2568 7.12887 30.4538C7.3259 30.6508 7.5776 30.7493 7.88396 30.7493H6.83333V11.7612Z" fill="#A70024"/>
</svg>
