<svg width="14" height="14" viewBox="0 0 14 14" fill="none" xmlns="http://www.w3.org/2000/svg">
<path d="M7.26064 1.07294L7.32789 1.20412L7.53294 1.60414L7.60017 1.73529L7.4692 1.80277L7.46919 1.80277L7.46918 1.80278L7.46916 1.80279L7.46913 1.8028L7.46868 1.80304L7.46653 1.80415L7.45747 1.80893C7.44938 1.81323 7.4373 1.8197 7.42182 1.82818C7.39086 1.84515 7.3464 1.87011 7.29316 1.90165C7.18634 1.96494 7.04578 2.05382 6.90846 2.15712L6.90845 2.15713C6.77016 2.26116 6.64258 2.37589 6.56192 2.47721C6.56191 2.47721 6.56191 2.47721 6.56191 2.47721L7.26064 1.07294ZM7.26064 1.07294L7.12934 1.13995L7.19647 1.27148L7.12931 1.13996L7.12927 1.13998L7.12918 1.14003L7.1289 1.14017L7.128 1.14063L7.12481 1.14228L7.11313 1.14838C7.10307 1.15368 7.08854 1.16142 7.07018 1.17142C7.03348 1.19141 6.98141 1.22051 6.91907 1.25735C6.79469 1.33085 6.62801 1.43601 6.46062 1.56194L6.46062 1.56194C6.29431 1.68706 6.11962 1.83682 5.97917 2.01324M7.26064 1.07294L6.72904 4.33728M6.72904 4.33728L6.72923 4.33718L6.7305 4.33652L6.73613 4.33354L6.75871 4.32132C6.77843 4.31049 6.80682 4.29453 6.84083 4.27436C6.90917 4.23383 6.99853 4.17729 7.08506 4.1122C7.17254 4.04637 7.24977 3.97573 7.29361 3.92067C7.30867 3.90175 7.31781 3.88656 7.32311 3.87622C7.32262 3.87542 7.32194 3.87444 7.32097 3.87321C7.31358 3.86381 7.29427 3.84553 7.2399 3.81197L7.23987 3.81195C7.1412 3.751 6.97628 3.69023 6.77804 3.62193L6.77803 3.62192C6.76597 3.61777 6.75378 3.61358 6.74146 3.60935C6.5605 3.54724 6.35301 3.47602 6.16748 3.36147L6.16747 3.36146C5.96365 3.23561 5.75107 3.01262 5.72861 2.6968L5.72861 2.6968C5.70869 2.41652 5.8409 2.18691 5.97917 2.01324M6.72904 4.33728L6.72902 4.33729L6.72901 4.3373L6.729 4.3373L6.72899 4.33731L6.59828 4.40486L6.66543 4.53584L6.87048 4.93586L6.93767 5.06692L7.06891 5.0001L7.0019 4.8685L7.06894 5.00008L7.06897 5.00007L7.06905 5.00003L7.06927 4.99991L7.06995 4.99956L7.07226 4.99838L7.0805 4.99408L7.11039 4.97807C7.13583 4.96423 7.17184 4.94413 7.21494 4.91868C7.30084 4.86795 7.41632 4.79513 7.53291 4.70743C7.64844 4.62052 7.77278 4.5148 7.87639 4.38468L7.87641 4.38466C7.97794 4.25709 8.0867 4.07599 8.07014 3.84282L8.07014 3.8428C8.04768 3.52698 7.83509 3.304 7.63127 3.17814L6.72904 4.33728ZM5.97917 2.01324L6.09471 2.10522L5.97917 2.01325C5.97917 2.01324 5.97917 2.01324 5.97917 2.01324ZM4.06365 2.27181L4.1309 2.40299L4.33595 2.80301L4.40318 2.93416L4.27221 3.00164L4.27221 3.00164L4.27219 3.00165L4.27217 3.00166L4.27214 3.00167L4.27169 3.00191L4.26955 3.00303L4.26048 3.0078C4.25239 3.0121 4.24031 3.01857 4.22483 3.02705C4.19387 3.04402 4.14941 3.06898 4.09617 3.10052C3.98935 3.16381 3.84879 3.25269 3.71147 3.35599L3.71146 3.356L4.06365 2.27181ZM4.06365 2.27181L3.93235 2.33882L3.99948 2.47036L3.93232 2.33883L3.93229 2.33885L3.93219 2.3389L3.93192 2.33904L3.93101 2.3395L3.92783 2.34115L3.91614 2.34725C3.90608 2.35255 3.89155 2.36029 3.87319 2.37029C3.8365 2.39028 3.78442 2.41938 3.72208 2.45622C3.5977 2.52972 3.43102 2.63488 3.26363 2.76081L3.26363 2.76081C3.09732 2.88593 2.92263 3.03569 2.78219 3.21211M4.06365 2.27181L3.53205 5.53615M4.43428 4.37701C4.24882 4.26247 4.0414 4.19128 3.8605 4.12919C3.84811 4.12494 3.83585 4.12073 3.82373 4.11655L3.82372 4.11655C3.62548 4.04825 3.46056 3.98747 3.36189 3.92652L3.36187 3.92652C3.3075 3.89293 3.28818 3.87466 3.28078 3.86525C3.27822 3.862 3.27767 3.86049 3.27733 3.85953C3.2768 3.85803 3.27541 3.85347 3.27466 3.84284M4.43428 4.37701L3.27466 3.84281L3.27466 3.84284M4.43428 4.37701C4.6381 4.50287 4.85069 4.72586 4.87315 5.04167L4.87315 5.04169C4.88971 5.27483 4.78096 5.45596 4.67941 5.58351C4.5758 5.71366 4.45145 5.81939 4.33592 5.9063C4.21933 5.994 4.10385 6.06682 4.01795 6.11755C3.97485 6.143 3.93884 6.1631 3.9134 6.17694L3.88351 6.19295L3.87527 6.19725L3.87296 6.19843L3.87228 6.19878L3.87206 6.1989L3.87198 6.19894L3.87195 6.19896L3.80491 6.06737L3.87192 6.19897L3.74068 6.26579L3.67349 6.13473L3.46844 5.73471L3.40129 5.60373L3.532 5.53618L3.53201 5.53617L3.53202 5.53617L3.53203 5.53616L3.53205 5.53615M4.43428 4.37701L3.53205 5.53615M3.27466 3.84284C3.27469 3.84325 3.2747 3.84345 3.27472 3.84345C3.27488 3.84346 3.27542 3.82903 3.28836 3.79868M3.27466 3.84284L3.28836 3.79868M3.53205 5.53615L3.53224 5.53605L3.53351 5.53539L3.53914 5.53242L3.56172 5.52019C3.58144 5.50936 3.60984 5.4934 3.64384 5.47323C3.71218 5.4327 3.80154 5.37616 3.88807 5.31107C3.97556 5.24524 4.05278 5.1746 4.09662 5.11954C4.11169 5.10062 4.12083 5.08543 4.12613 5.07509C4.12563 5.0743 4.12495 5.07331 4.12398 5.07208C4.11659 5.06268 4.09728 5.0444 4.04291 5.01084L4.04288 5.01082C3.94421 4.94987 3.77929 4.8891 3.58105 4.8208L3.58104 4.8208C3.56898 4.81664 3.55679 4.81245 3.54447 4.80823C3.36351 4.74611 3.15602 4.67489 2.97049 4.56034L2.97049 4.56033C2.76667 4.43448 2.55408 4.21149 2.53162 3.89567L2.53162 3.89567C2.5117 3.61539 2.64391 3.38578 2.78219 3.21211M2.78219 3.21211L2.89772 3.3041L2.78218 3.21212C2.78218 3.21212 2.78218 3.21211 2.78219 3.21211ZM10.4576 2.27181L10.5249 2.40299L10.7299 2.80301L10.7972 2.93416L10.6662 3.00164L10.6662 3.00164L10.6662 3.00165L10.6662 3.00166L10.6661 3.00167L10.6657 3.00191L10.6635 3.00303L10.6545 3.0078C10.6464 3.0121 10.6343 3.01857 10.6188 3.02705C10.5878 3.04402 10.5434 3.06898 10.4901 3.10052C10.3833 3.16381 10.2428 3.25269 10.1054 3.35599L10.0167 3.23798L10.1054 3.356C9.96715 3.46003 9.83956 3.57476 9.7589 3.67608C9.7199 3.72509 9.69584 3.76701 9.68234 3.79868C9.6694 3.82903 9.66886 3.84345 9.6687 3.84345C9.66868 3.84345 9.66867 3.84323 9.66864 3.84281L9.66864 3.84284C9.66939 3.85347 9.67078 3.85803 9.67131 3.85953C9.67164 3.86049 9.6722 3.862 9.67476 3.86525C9.68215 3.87466 9.70148 3.89293 9.75585 3.92652L9.75587 3.92652C9.85454 3.98747 10.0195 4.04825 10.2177 4.11655L10.1696 4.25617L10.2177 4.11655C10.2298 4.12073 10.2421 4.12494 10.2545 4.12919L10.4576 2.27181ZM10.4576 2.27181L10.3263 2.33882L10.3935 2.47036L10.3263 2.33883L10.3263 2.33885L10.3262 2.3389L10.3259 2.33904L10.325 2.3395L10.3218 2.34115L10.3101 2.34725C10.3001 2.35255 10.2855 2.36029 10.2672 2.37029C10.2305 2.39028 10.1784 2.41938 10.1161 2.45622C9.99168 2.52972 9.825 2.63488 9.65761 2.76081L9.74639 2.87882L9.65761 2.76081C9.4913 2.88593 9.31661 3.03569 9.17616 3.21211M10.4576 2.27181L10.8283 4.37702C11.0321 4.50288 11.2447 4.72586 11.2671 5.04167L11.2671 5.04168C11.2837 5.27483 11.1749 5.45596 11.0734 5.58351C10.9698 5.71366 10.8454 5.81939 10.7299 5.9063C10.6133 5.994 10.4978 6.06682 10.4119 6.11755C10.3688 6.143 10.3328 6.1631 10.3074 6.17694L10.2775 6.19295L10.2692 6.19725L10.2669 6.19843L10.2663 6.19878L10.266 6.1989L10.266 6.19894L10.2659 6.19895L10.1989 6.06737L10.2659 6.19897L10.1347 6.26579L10.0675 6.13473L9.86242 5.73471L9.79527 5.60373L9.92598 5.53618L9.92599 5.53617L9.926 5.53617L9.92601 5.53616L9.92603 5.53615L9.92622 5.53605L9.92749 5.53539L9.93312 5.53242L9.9557 5.52019C9.97542 5.50936 10.0038 5.4934 10.0378 5.47323C10.1062 5.4327 10.1955 5.37616 10.2821 5.31107C10.3695 5.24524 10.4468 5.1746 10.4906 5.11954C10.5057 5.10062 10.5148 5.08543 10.5201 5.07509C10.5196 5.0743 10.5189 5.07331 10.518 5.07208C10.5106 5.06268 10.4913 5.0444 10.4369 5.01084L10.4369 5.01082C10.3382 4.94987 10.1733 4.8891 9.97503 4.8208L10.0231 4.68117L9.97502 4.8208C9.96296 4.81664 9.95077 4.81245 9.93845 4.80823C9.75749 4.74611 9.55 4.67489 9.36447 4.56034L9.44205 4.43468L9.36446 4.56033C9.16064 4.43448 8.94806 4.21149 8.9256 3.89567L8.9256 3.89567C8.90568 3.6154 9.03789 3.38578 9.17616 3.21211M9.17616 3.21211L9.29169 3.3041M9.17616 3.21211C9.17616 3.21211 9.17616 3.21212 9.17616 3.21212L9.29169 3.3041M9.29169 3.3041C9.16232 3.46659 9.05687 3.65956 9.0729 3.8852L9.29169 3.3041ZM10.6714 5.08407C10.6656 5.00265 10.6299 4.95646 10.5145 4.88518L10.6714 5.08407ZM10.6714 5.08407C10.6721 5.09331 10.661 5.14266 10.6061 5.21152L10.6714 5.08407ZM3.28836 3.79868C3.30186 3.76701 3.32592 3.72509 3.36492 3.67608L3.28836 3.79868ZM5.87866 6.15914L5.80835 6.3826L6.04028 6.34968C6.31608 6.31052 6.60262 6.28983 6.89937 6.28983C7.19613 6.28983 7.48264 6.31052 7.75846 6.34968L7.9904 6.3826L7.92009 6.15914C7.87459 6.01452 7.81304 5.87825 7.73438 5.76026C7.54424 5.47505 7.28196 5.29503 6.89937 5.29503C6.51678 5.29503 6.25451 5.47505 6.06437 5.76026C5.98571 5.87825 5.92416 6.01452 5.87866 6.15914ZM1.79308 10.9296L1.78461 11.0853H1.94054H11.8582H12.0141L12.0057 10.9296C11.8818 8.65507 9.96151 6.44395 6.89937 6.44395C3.83722 6.44395 1.91689 8.65507 1.79308 10.9296ZM1.16837 10.949L1.06394 10.8445L0.95952 10.949L0.641669 11.2668L0.537247 11.3712L0.641666 11.4757C1.13955 11.9736 1.70029 11.9844 2.10389 11.9844H11.6949C12.0985 11.9844 12.6592 11.9736 13.1571 11.4757L13.2615 11.3712L13.1571 11.2668L12.8392 10.949L12.7348 10.8446L12.6304 10.949C12.4745 11.1048 12.3381 11.1735 12.2001 11.2067C12.0628 11.2398 11.9191 11.2397 11.7305 11.2395C11.7188 11.2395 11.7069 11.2395 11.6949 11.2395H2.10389C2.09184 11.2395 2.07998 11.2395 2.06829 11.2395C1.87964 11.2397 1.73591 11.2398 1.59861 11.2067C1.46067 11.1735 1.32421 11.1048 1.16837 10.949ZM3.32309 12.1386H3.04716L3.20021 12.3682L3.69979 13.1176L3.74363 13.1833H3.82267H9.97608H10.0551L10.099 13.1176L10.5985 12.3682L10.7516 12.1386H10.4757H3.32309Z" stroke="black" stroke-width="0.295357"/>
</svg>
