<svg width="41" height="41" viewBox="0 0 41 41" fill="none" xmlns="http://www.w3.org/2000/svg">
<g clip-path="url(#clip0_519_2565)">
<path d="M28.4722 4.55469H12.5278C11.9237 4.55469 11.3443 4.79467 10.9171 5.22183C10.49 5.649 10.25 6.22836 10.25 6.83247V34.1658C10.25 34.7699 10.49 35.3493 10.9171 35.7764C11.3443 36.2036 11.9237 36.4436 12.5278 36.4436H28.4722C29.0763 36.4436 29.6557 36.2036 30.0829 35.7764C30.51 35.3493 30.75 34.7699 30.75 34.1658V6.83247C30.75 6.22836 30.51 5.649 30.0829 5.22183C29.6557 4.79467 29.0763 4.55469 28.4722 4.55469ZM12.5278 6.83247H28.4722V27.3325H12.5278V6.83247ZM12.5278 34.1658V29.6102H28.4722V34.1658H12.5278Z" fill="#A70024"/>
<path d="M19.3613 30.75H21.6391V33.0278H19.3613V30.75Z" fill="#A70024"/>
</g>
<defs>
<clipPath id="clip0_519_2565">
<rect width="41" height="41" fill="white"/>
</clipPath>
</defs>
</svg>
