<svg width="41" height="41" viewBox="0 0 41 41" fill="none" xmlns="http://www.w3.org/2000/svg">
<path d="M20.5 23.0625C19.233 23.0625 17.9944 22.6868 16.9409 21.9829C15.8874 21.2789 15.0663 20.2784 14.5814 19.1078C14.0965 17.9372 13.9697 16.6491 14.2168 15.4065C14.464 14.1638 15.0742 13.0223 15.9701 12.1264C16.866 11.2304 18.0075 10.6203 19.2502 10.3731C20.4929 10.1259 21.781 10.2528 22.9516 10.7376C24.1222 11.2225 25.1227 12.0436 25.8266 13.0971C26.5305 14.1506 26.9063 15.3892 26.9063 16.6563C26.9042 18.3547 26.2286 19.9829 25.0277 21.1839C23.8267 22.3849 22.1984 23.0605 20.5 23.0625ZM20.5 12.8125C19.7398 12.8125 18.9966 13.0379 18.3645 13.4603C17.7324 13.8826 17.2398 14.483 16.9488 15.1853C16.6579 15.8877 16.5818 16.6605 16.7301 17.4061C16.8784 18.1517 17.2445 18.8366 17.7821 19.3742C18.3196 19.9118 19.0045 20.2778 19.7501 20.4261C20.4957 20.5745 21.2686 20.4983 21.9709 20.2074C22.6733 19.9165 23.2736 19.4238 23.696 18.7917C24.1183 18.1596 24.3438 17.4165 24.3438 16.6563C24.3427 15.6371 23.9374 14.6601 23.2168 13.9394C22.4962 13.2188 21.5191 12.8135 20.5 12.8125Z" fill="#A70024"/>
<path d="M20.5 38.4375L9.69139 25.6903C9.5412 25.4989 9.39257 25.3063 9.24552 25.1125C7.39921 22.6804 6.40179 19.7098 6.40626 16.6562C6.40626 12.9184 7.89114 9.33355 10.5342 6.69046C13.1773 4.04737 16.7621 2.5625 20.5 2.5625C24.2379 2.5625 27.8227 4.04737 30.4658 6.69046C33.1089 9.33355 34.5938 12.9184 34.5938 16.6562C34.5982 19.7084 33.6013 22.6777 31.7558 25.1087L31.7545 25.1125C31.7545 25.1125 31.3701 25.6173 31.3125 25.6852L20.5 38.4375ZM11.2917 23.5686C11.2917 23.5686 11.5902 23.9632 11.6581 24.0478L20.5 34.4759L29.3535 24.0337C29.4098 23.9632 29.7096 23.566 29.7109 23.5648C31.2191 21.5777 32.0342 19.1509 32.0313 16.6562C32.0313 13.598 30.8164 10.665 28.6538 8.50242C26.4913 6.3399 23.5583 5.125 20.5 5.125C17.4417 5.125 14.5087 6.3399 12.3462 8.50242C10.1837 10.665 8.96877 13.598 8.96877 16.6562C8.96608 19.1524 9.78207 21.5806 11.2917 23.5686Z" fill="#A70024"/>
</svg>
