<svg width="43" height="43" viewBox="0 0 43 43" fill="none" xmlns="http://www.w3.org/2000/svg">
<path d="M19.2696 16.6804C19.4755 16.9545 19.7485 17.171 20.0623 17.3091C20.3761 17.4471 20.7201 17.5021 21.0613 17.4688H22.1184C22.5935 17.4688 23.0493 17.28 23.3853 16.944C23.7213 16.608 23.91 16.1523 23.91 15.6771C23.91 15.2019 23.7213 14.7462 23.3853 14.4102C23.0493 14.0742 22.5935 13.8854 22.1184 13.8854H20.9538C20.4786 13.8854 20.0229 13.6967 19.6869 13.3606C19.3509 13.0246 19.1621 12.5689 19.1621 12.0938C19.1621 11.6186 19.3509 11.1629 19.6869 10.8269C20.0229 10.4908 20.4786 10.3021 20.9538 10.3021H22.0109C22.352 10.2687 22.6961 10.3237 23.0099 10.4618C23.3236 10.5998 23.5966 10.8163 23.8025 11.0904M21.5002 10.3021V9.40625M21.5002 18.3646V17.4688" stroke="white" stroke-width="1.72" stroke-linecap="round" stroke-linejoin="round"/>
<path d="M37.1777 4.92773H5.82357C5.32881 4.92773 4.92773 5.32881 4.92773 5.82357V21.9486C4.92773 22.4433 5.32881 22.8444 5.82357 22.8444H37.1777C37.6725 22.8444 38.0736 22.4433 38.0736 21.9486V5.82357C38.0736 5.32881 37.6725 4.92773 37.1777 4.92773Z" stroke="white" stroke-width="1.72" stroke-linecap="round" stroke-linejoin="round"/>
<path d="M7.78544 4.92773C7.78544 5.68565 7.48436 6.41252 6.94844 6.94844C6.41252 7.48436 5.68565 7.78544 4.92773 7.78544M38.0736 7.78544C37.3157 7.78544 36.5888 7.48436 36.0529 6.94844C35.5169 6.41252 35.2159 5.68565 35.2159 4.92773M7.78544 22.8444C7.78544 22.4691 7.71153 22.0975 7.56791 21.7508C7.4243 21.4041 7.2138 21.0891 6.94844 20.8237C6.68308 20.5583 6.36805 20.3478 6.02133 20.2042C5.67462 20.0606 5.30301 19.9867 4.92773 19.9867M38.0736 19.9867C37.6983 19.9867 37.3267 20.0606 36.98 20.2042C36.6333 20.3478 36.3182 20.5583 36.0529 20.8237C35.7875 21.0891 35.577 21.4041 35.4334 21.7508C35.2898 22.0975 35.2159 22.4691 35.2159 22.8444" stroke="white" stroke-width="1.72" stroke-linecap="round" stroke-linejoin="round"/>
<path d="M30.4577 15.6771C31.4472 15.6771 32.2493 14.8749 32.2493 13.8854C32.2493 12.8959 31.4472 12.0938 30.4577 12.0938C29.4682 12.0938 28.666 12.8959 28.666 13.8854C28.666 14.8749 29.4682 15.6771 30.4577 15.6771Z" stroke="white" stroke-width="1.72" stroke-linecap="round" stroke-linejoin="round"/>
<path d="M12.5417 15.6771C13.5312 15.6771 14.3333 14.8749 14.3333 13.8854C14.3333 12.8959 13.5312 12.0938 12.5417 12.0938C11.5522 12.0938 10.75 12.8959 10.75 13.8854C10.75 14.8749 11.5522 15.6771 12.5417 15.6771Z" stroke="white" stroke-width="1.72" stroke-linecap="round" stroke-linejoin="round"/>
<path d="M35.2236 22.8438H7.77532C7.62352 22.8427 7.47395 22.8802 7.34062 22.9527C7.20729 23.0253 7.09459 23.1306 7.0131 23.2586C6.93161 23.3867 6.88399 23.5334 6.87472 23.6849C6.86545 23.8364 6.89483 23.9878 6.96011 24.1248L7.94552 26.1942C8.01813 26.3466 8.13234 26.4755 8.27499 26.5658C8.41764 26.6561 8.58292 26.7043 8.75177 26.7048H34.2472C34.416 26.7043 34.5813 26.6561 34.724 26.5658C34.8666 26.4755 34.9808 26.3466 35.0534 26.1942L36.0389 24.1248C36.1041 23.9878 36.1335 23.8364 36.1242 23.6849C36.115 23.5334 36.0674 23.3867 35.9859 23.2586C35.9044 23.1306 35.7917 23.0253 35.6583 22.9527C35.525 22.8802 35.3754 22.8427 35.2236 22.8438ZM14.6822 26.7048H28.3078V30.7719H14.6822V26.7048Z" stroke="white" stroke-width="1.72" stroke-linecap="round" stroke-linejoin="round"/>
<path d="M32.1415 30.7719H10.8565C10.6531 30.7655 10.4535 30.8285 10.2907 30.9507C10.1279 31.0728 10.0115 31.2467 9.9607 31.4438L8.26758 38.073H34.7305L33.0105 31.4438C32.9608 31.2513 32.8484 31.0807 32.6911 30.9591C32.5337 30.8374 32.3404 30.7716 32.1415 30.7719Z" stroke="white" stroke-width="1.72" stroke-linecap="round" stroke-linejoin="round"/>
</svg>
