<svg width="50" height="50" viewBox="0 0 50 50" fill="none" xmlns="http://www.w3.org/2000/svg">
<path d="M18.1541 8L29.6785 14.085L42.8194 9.12978V22.0073H39.0247V14.2808L31.4354 17.143V20.2903H27.6407V16.9833L20.0514 12.9776V33.8992L23.1912 36.8206L21.6831 38.736L17.8366 35.1097L6 40.5009V28.3825V15.0122L18.1541 8ZM16.2567 33.7395V12.9776L8.66738 16.9833V36.6017L16.2567 33.7395ZM26.6883 25.4378H43.7643V35.1097C43.7643 35.966 43.5283 36.8089 43.0778 37.562C42.6272 38.3151 41.9763 38.9546 41.1839 39.4228L35.2263 42.946L29.2686 39.4228C28.4762 38.9546 27.8253 38.3151 27.3748 37.562C26.9242 36.8089 26.6883 35.966 26.6883 35.1097V25.4378ZM30.4829 28.8718V35.1097C30.483 35.395 30.5616 35.6758 30.7116 35.9267C30.8617 36.1776 31.0785 36.3907 31.3424 36.5468L35.2263 38.8424L39.1101 36.5468C39.374 36.3907 39.5908 36.1776 39.7409 35.9267C39.891 35.6758 39.9696 35.395 39.9696 35.1097V28.8718H30.4829Z" fill="white"/>
</svg>
