<svg width="45" height="45" viewBox="0 0 45 45" fill="none" xmlns="http://www.w3.org/2000/svg">
<path d="M36.1626 37.4041L24.5409 25.7824C23.6129 26.573 22.5458 27.1848 21.3394 27.6179C20.1331 28.0509 18.9205 28.2674 17.7018 28.2674C14.7299 28.2674 12.2145 27.2386 10.1556 25.181C8.0968 23.1222 7.06738 20.6074 7.06738 17.6367C7.06738 14.666 8.09556 12.15 10.1519 10.0887C12.2095 8.02615 14.7237 6.99487 17.6944 6.99487C20.6663 6.99487 23.183 8.02429 25.2443 10.0831C27.3056 12.142 28.3362 14.658 28.3362 17.6312C28.3362 18.9204 28.108 20.1682 27.6514 21.3745C27.1936 22.5809 26.5935 23.6128 25.8512 24.4702L37.4729 36.0901L36.1626 37.4041ZM17.7018 26.4097C20.164 26.4097 22.2432 25.5621 23.9396 23.867C25.6346 22.172 26.4822 20.0927 26.4822 17.6293C26.4822 15.1671 25.6346 13.0885 23.9396 11.3934C22.2445 9.69833 20.1659 8.85079 17.7037 8.85079C15.2415 8.85079 13.1622 9.69833 11.4659 11.3934C9.77084 13.0885 8.9233 15.1671 8.9233 17.6293C8.9233 20.0915 9.77084 22.1701 11.4659 23.8652C13.161 25.5603 15.2396 26.4097 17.7018 26.4097Z" fill="black"/>
</svg>
