<svg width="38" height="38" viewBox="0 0 38 38" fill="none" xmlns="http://www.w3.org/2000/svg">
<mask id="path-1-inside-1_644_214" fill="white">
<path fill-rule="evenodd" clip-rule="evenodd" d="M18.9995 0.25C14.312 0.25 11.7078 1.5 11.7078 1.5V6.5L8.03175 10.176C7.41404 10.7938 7.78591 11.8302 8.65675 11.8927C10.7578 12.0417 14.3172 12.2292 18.9995 12.2292C21.2974 12.2292 23.3245 12.1844 25.0411 12.1208H25.0234C25.2797 13.0488 25.3181 14.0234 25.1357 14.9687C24.9533 15.914 24.5551 16.8044 23.9719 17.5704C23.3888 18.3364 22.6366 18.9573 21.774 19.3848C20.9113 19.8122 19.9616 20.0346 18.9989 20.0346C18.0362 20.0346 17.0865 19.8122 16.2239 19.3848C15.3613 18.9573 14.6091 18.3364 14.026 17.5704C13.4428 16.8044 13.0445 15.914 12.8621 14.9687C12.6797 14.0234 12.7182 13.0488 12.9745 12.1208C12.2036 12.0927 11.4953 12.0604 10.8536 12.0271C10.5913 13.2427 10.6044 14.5016 10.8919 15.7115C11.1794 16.9213 11.734 18.0515 12.5151 19.0192C13.2962 19.9868 14.284 20.7674 15.406 21.3036C16.5281 21.8399 17.7559 22.1182 18.9995 22.1182C20.243 22.1182 21.4708 21.8399 22.5929 21.3036C23.7149 20.7674 24.7027 19.9868 25.4838 19.0192C26.2649 18.0515 26.8195 16.9213 27.107 15.7115C27.3945 14.5016 27.4076 13.2427 27.1453 12.0271C27.878 11.9888 28.6103 11.9437 29.3422 11.8917C30.213 11.8292 30.5849 10.7938 29.9672 10.176L26.2901 6.5V1.5C26.2901 1.5 23.687 0.25 18.9995 0.25ZM13.7911 7.3625L11.1953 9.95833C13.2057 10.0594 15.8432 10.1458 18.9995 10.1458C22.1557 10.1458 24.7932 10.0594 26.8036 9.95833L24.2078 7.3625V2.97917C24.1032 2.9502 23.9984 2.92242 23.8932 2.89583C22.8078 2.62083 21.1557 2.33333 18.9995 2.33333C16.8422 2.33333 15.1911 2.62083 14.1057 2.89583C14.0003 2.9217 13.8955 2.94949 13.7911 2.97917V7.3625Z"/>
</mask>
<path fill-rule="evenodd" clip-rule="evenodd" d="M18.9995 0.25C14.312 0.25 11.7078 1.5 11.7078 1.5V6.5L8.03175 10.176C7.41404 10.7938 7.78591 11.8302 8.65675 11.8927C10.7578 12.0417 14.3172 12.2292 18.9995 12.2292C21.2974 12.2292 23.3245 12.1844 25.0411 12.1208H25.0234C25.2797 13.0488 25.3181 14.0234 25.1357 14.9687C24.9533 15.914 24.5551 16.8044 23.9719 17.5704C23.3888 18.3364 22.6366 18.9573 21.774 19.3848C20.9113 19.8122 19.9616 20.0346 18.9989 20.0346C18.0362 20.0346 17.0865 19.8122 16.2239 19.3848C15.3613 18.9573 14.6091 18.3364 14.026 17.5704C13.4428 16.8044 13.0445 15.914 12.8621 14.9687C12.6797 14.0234 12.7182 13.0488 12.9745 12.1208C12.2036 12.0927 11.4953 12.0604 10.8536 12.0271C10.5913 13.2427 10.6044 14.5016 10.8919 15.7115C11.1794 16.9213 11.734 18.0515 12.5151 19.0192C13.2962 19.9868 14.284 20.7674 15.406 21.3036C16.5281 21.8399 17.7559 22.1182 18.9995 22.1182C20.243 22.1182 21.4708 21.8399 22.5929 21.3036C23.7149 20.7674 24.7027 19.9868 25.4838 19.0192C26.2649 18.0515 26.8195 16.9213 27.107 15.7115C27.3945 14.5016 27.4076 13.2427 27.1453 12.0271C27.878 11.9888 28.6103 11.9437 29.3422 11.8917C30.213 11.8292 30.5849 10.7938 29.9672 10.176L26.2901 6.5V1.5C26.2901 1.5 23.687 0.25 18.9995 0.25ZM13.7911 7.3625L11.1953 9.95833C13.2057 10.0594 15.8432 10.1458 18.9995 10.1458C22.1557 10.1458 24.7932 10.0594 26.8036 9.95833L24.2078 7.3625V2.97917C24.1032 2.9502 23.9984 2.92242 23.8932 2.89583C22.8078 2.62083 21.1557 2.33333 18.9995 2.33333C16.8422 2.33333 15.1911 2.62083 14.1057 2.89583C14.0003 2.9217 13.8955 2.94949 13.7911 2.97917V7.3625Z" fill="white"/>
<path d="M28.2314 0.556316L28.2293 0.554233L22.5738 6.21244L22.5759 6.21452L28.2314 0.556316ZM11.7078 1.5L8.24594 -5.71218L3.70779 -3.53387V1.5H11.7078ZM11.7078 6.5L17.3646 12.1569L19.7078 9.81371V6.5H11.7078ZM8.65675 11.8927L8.08406 19.8722L8.09099 19.8727L8.65675 11.8927ZM25.0411 12.1208L25.337 20.1154L25.0411 4.12083V12.1208ZM25.0234 12.1208V4.12083H14.5146L17.3121 14.2505L25.0234 12.1208ZM12.9745 12.1208L20.6858 14.2505L23.3799 4.49517L13.2662 4.12615L12.9745 12.1208ZM10.8536 12.0271L11.2686 4.03786L4.4697 3.68466L3.03362 10.3396L10.8536 12.0271ZM27.1453 12.0271L26.7278 4.03798L17.343 4.52839L19.3253 13.7146L27.1453 12.0271ZM29.3422 11.8917L29.909 19.8716L29.9149 19.8711L29.3422 11.8917ZM29.9672 10.176L35.624 4.51919L35.6232 4.51839L29.9672 10.176ZM26.2901 6.5H18.2901V9.81437L20.634 12.1577L26.2901 6.5ZM26.2901 1.5H34.2901V-3.533L29.7531 -5.71164L26.2901 1.5ZM13.7911 7.3625L19.448 13.0194L21.7911 10.6762V7.3625H13.7911ZM11.1953 9.95833L5.53843 4.30148L-7.2038 17.0437L10.7937 17.9482L11.1953 9.95833ZM26.8036 9.95833L27.2052 17.9482L45.2027 17.0437L32.4605 4.30148L26.8036 9.95833ZM24.2078 7.3625H16.2078V10.6762L18.5509 13.0194L24.2078 7.3625ZM24.2078 2.97917H32.2078V-3.10562L26.3439 -4.73037L24.2078 2.97917ZM23.8932 2.89583L21.9284 10.6508L21.9325 10.6518L23.8932 2.89583ZM14.1057 2.89583L16.0134 10.6651L16.042 10.658L16.0705 10.6508L14.1057 2.89583ZM13.7911 2.97917L11.6024 -4.71559L5.79112 -3.0626V2.97917H13.7911ZM18.9995 -7.75C15.9394 -7.75 13.4577 -7.34145 11.6363 -6.88131C10.7271 -6.65161 9.98425 -6.40955 9.41694 -6.20008C9.13323 -6.09533 8.89314 -5.99862 8.69774 -5.91552C8.60003 -5.87396 8.51344 -5.83578 8.43812 -5.80167C8.40045 -5.78462 8.3656 -5.76857 8.33356 -5.75363C8.31755 -5.74616 8.30223 -5.73896 8.28763 -5.73205C8.28033 -5.7286 8.2732 -5.72521 8.26625 -5.7219C8.26278 -5.72024 8.25935 -5.71861 8.25596 -5.71699C8.25427 -5.71618 8.25176 -5.71498 8.25092 -5.71457C8.24842 -5.71338 8.24594 -5.71218 11.7078 1.5C15.1696 8.71218 15.1672 8.71337 15.1647 8.71454C15.1639 8.71493 15.1615 8.7161 15.1599 8.71687C15.1566 8.71842 15.1534 8.71994 15.1503 8.72145C15.144 8.72445 15.1378 8.72739 15.1318 8.73024C15.1197 8.73595 15.1082 8.74135 15.0972 8.74646C15.0753 8.75667 15.0557 8.76569 15.0382 8.77359C15.0033 8.7894 14.9773 8.80072 14.9599 8.8081C14.9253 8.82284 14.9252 8.82189 14.9589 8.80946C15.0264 8.78455 15.2276 8.71411 15.5553 8.63131C16.2079 8.46645 17.372 8.25 18.9995 8.25V-7.75ZM3.70779 1.5V6.5H19.7078V1.5H3.70779ZM6.05093 0.843147L2.37489 4.51919L13.6886 15.8329L17.3646 12.1569L6.05093 0.843147ZM2.37489 4.51919C-2.91711 9.81119 0.1347 19.3017 8.08406 19.8722L9.22944 3.91323C15.4371 4.35876 17.7452 11.7763 13.6886 15.8329L2.37489 4.51919ZM8.09099 19.8727C10.3552 20.0332 14.1048 20.2292 18.9995 20.2292V4.22917C14.5295 4.22917 11.1603 4.05013 9.22251 3.91274L8.09099 19.8727ZM18.9995 20.2292C21.4011 20.2292 23.5269 20.1824 25.337 20.1154L24.7452 4.12631C23.122 4.18639 21.1937 4.22917 18.9995 4.22917V20.2292ZM25.0411 4.12083H25.0234V20.1208H25.0411V4.12083ZM17.3121 14.2505C17.2403 13.9906 17.2296 13.7177 17.2806 13.4531L32.9909 16.4844C33.4067 14.3292 33.3191 12.107 32.7347 9.9912L17.3121 14.2505ZM17.2806 13.4531C17.3317 13.1884 17.4432 12.9391 17.6065 12.7246L30.3373 22.4161C31.6669 20.6696 32.575 18.6396 32.9909 16.4844L17.2806 13.4531ZM17.6065 12.7246C17.7698 12.5101 17.9804 12.3363 18.2219 12.2166L25.326 26.553C27.2928 25.5784 29.0078 24.1626 30.3373 22.4161L17.6065 12.7246ZM18.2219 12.2166C18.4635 12.0969 18.7294 12.0346 18.9989 12.0346V28.0346C21.1939 28.0346 23.3592 27.5275 25.326 26.553L18.2219 12.2166ZM18.9989 12.0346C19.2685 12.0346 19.5344 12.0969 19.7759 12.2166L12.6719 26.553C14.6386 27.5275 16.8039 28.0346 18.9989 28.0346V12.0346ZM19.7759 12.2166C20.0175 12.3363 20.2281 12.5101 20.3914 12.7246L7.66053 22.4161C8.99008 24.1626 10.7051 25.5784 12.6719 26.553L19.7759 12.2166ZM20.3914 12.7246C20.5546 12.9391 20.6662 13.1884 20.7172 13.4531L5.00702 16.4844C5.42287 18.6396 6.33099 20.6696 7.66053 22.4161L20.3914 12.7246ZM20.7172 13.4531C20.7683 13.7177 20.7575 13.9906 20.6858 14.2505L5.26312 9.9912C4.67881 12.107 4.59116 14.3291 5.00702 16.4844L20.7172 13.4531ZM13.2662 4.12615C12.5399 4.09966 11.8729 4.06924 11.2686 4.03786L10.4386 20.0163C11.1177 20.0516 11.8673 20.0858 12.6828 20.1155L13.2662 4.12615ZM3.03362 10.3396C2.51949 12.7222 2.54511 15.1896 3.10861 17.561L18.6752 13.8619C18.6637 13.8135 18.6631 13.7632 18.6736 13.7146L3.03362 10.3396ZM3.10861 17.561C3.67212 19.9324 4.75921 22.1475 6.29019 24.0441L18.7401 13.9943C18.7088 13.9555 18.6867 13.9103 18.6752 13.8619L3.10861 17.561ZM6.29019 24.0441C7.82117 25.9407 9.75722 27.4706 11.9564 28.5217L18.8557 14.0856C18.8108 14.0642 18.7713 14.033 18.7401 13.9943L6.29019 24.0441ZM11.9564 28.5217C14.1555 29.5727 16.562 30.1182 18.9995 30.1182V14.1182C18.9497 14.1182 18.9006 14.1071 18.8557 14.0856L11.9564 28.5217ZM18.9995 30.1182C21.4369 30.1182 23.8434 29.5727 26.0425 28.5217L19.1432 14.0856C19.0983 14.1071 19.0492 14.1182 18.9995 14.1182V30.1182ZM26.0425 28.5217C28.2417 27.4706 30.1777 25.9407 31.7087 24.0441L19.2588 13.9943C19.2276 14.033 19.1881 14.0642 19.1432 14.0856L26.0425 28.5217ZM31.7087 24.0441C33.2397 22.1475 34.3268 19.9324 34.8903 17.561L19.3238 13.8619C19.3123 13.9103 19.2901 13.9555 19.2588 13.9943L31.7087 24.0441ZM34.8903 17.561C35.4538 15.1896 35.4794 12.7222 34.9653 10.3396L19.3253 13.7146C19.3358 13.7632 19.3353 13.8135 19.3238 13.8619L34.8903 17.561ZM27.5628 20.0162C28.3453 19.9753 29.1274 19.9271 29.909 19.8716L28.7753 3.91178C28.0932 3.96023 27.4107 4.0023 26.7278 4.03798L27.5628 20.0162ZM29.9149 19.8711C37.8581 19.3011 40.9204 9.81559 35.624 4.51919L24.3103 15.8329C20.2493 11.7719 22.5679 4.35728 28.7695 3.91219L29.9149 19.8711ZM35.6232 4.51839L31.9461 0.842346L20.634 12.1577L24.3111 15.8337L35.6232 4.51839ZM34.2901 6.5V1.5H18.2901V6.5H34.2901ZM26.2901 1.5C29.7531 -5.71164 29.7506 -5.71284 29.7481 -5.71403C29.7472 -5.71444 29.7447 -5.71564 29.743 -5.71645C29.7396 -5.71807 29.7362 -5.71971 29.7327 -5.72137C29.7258 -5.72468 29.7186 -5.72807 29.7113 -5.73153C29.6967 -5.73845 29.6814 -5.74565 29.6654 -5.75313C29.6333 -5.76808 29.5985 -5.78414 29.5608 -5.8012C29.4854 -5.83534 29.3988 -5.87354 29.3011 -5.91512C29.1057 -5.99827 28.8656 -6.09502 28.5818 -6.19981C28.0145 -6.40935 27.2717 -6.65147 26.3625 -6.88122C24.5411 -7.34144 22.0595 -7.75 18.9995 -7.75V8.25C20.6269 8.25 21.7906 8.46644 22.4427 8.63122C22.7702 8.71397 22.9711 8.78435 23.0384 8.80918C23.0719 8.82158 23.0718 8.82249 23.037 8.8077C23.0196 8.8003 22.9935 8.78895 22.9586 8.77313C22.9411 8.76521 22.9215 8.75618 22.8996 8.74596C22.8886 8.74084 22.8771 8.73543 22.865 8.72972C22.859 8.72686 22.8528 8.72393 22.8465 8.72091C22.8433 8.71941 22.8401 8.71788 22.8369 8.71634C22.8353 8.71557 22.8328 8.71439 22.832 8.71401C22.8296 8.71283 22.8271 8.71164 26.2901 1.5ZM8.13427 1.70565L5.53843 4.30148L16.8521 15.6152L19.448 13.0194L8.13427 1.70565ZM10.7937 17.9482C12.9257 18.0554 15.6976 18.1458 18.9995 18.1458V2.14583C15.9888 2.14583 13.4858 2.06335 11.5969 1.96842L10.7937 17.9482ZM18.9995 18.1458C22.3013 18.1458 25.0733 18.0554 27.2052 17.9482L26.4021 1.96842C24.5132 2.06335 22.0101 2.14583 18.9995 2.14583V18.1458ZM32.4605 4.30148L29.8646 1.70565L18.5509 13.0194L21.1468 15.6152L32.4605 4.30148ZM32.2078 7.3625V2.97917H16.2078V7.3625H32.2078ZM26.3439 -4.73037C26.1811 -4.77549 26.0177 -4.81876 25.8539 -4.86018L21.9325 10.6518C21.979 10.6636 22.0254 10.6759 22.0716 10.6887L26.3439 -4.73037ZM25.858 -4.85914C24.1841 -5.28322 21.8716 -5.66667 18.9995 -5.66667V10.3333C20.4398 10.3333 21.4314 10.5249 21.9284 10.6508L25.858 -4.85914ZM18.9995 -5.66667C16.1261 -5.66667 13.8145 -5.28317 12.1409 -4.85914L16.0705 10.6508C16.5677 10.5248 17.5582 10.3333 18.9995 10.3333V-5.66667ZM12.198 -4.87339C11.9985 -4.82441 11.8 -4.7718 11.6024 -4.71559L15.9799 10.6739C15.991 10.6708 16.0021 10.6678 16.0134 10.6651L12.198 -4.87339ZM5.79112 2.97917V7.3625H21.7911V2.97917H5.79112Z" fill="white" mask="url(#path-1-inside-1_644_214)"/>
<mask id="path-3-inside-2_644_214" fill="white">
<path fill-rule="evenodd" clip-rule="evenodd" d="M19.3003 23.2097L26.1149 25.2378L31.9555 21.2628C32.1121 21.1561 32.2948 21.0942 32.484 21.0836C32.6732 21.0731 32.8617 21.1144 33.0292 21.203C33.1966 21.2916 33.3368 21.4242 33.4345 21.5865C33.5322 21.7489 33.5838 21.9348 33.5837 22.1243V27.3326H31.5003V24.093L27.3337 26.9284V35.6659C27.3337 36.4659 27.6347 37.1972 28.1295 37.7493H9.87116C10.366 37.1972 10.667 36.4659 10.667 35.6659V26.8482L6.50033 24.0711V27.3326H4.41699V22.1243C4.41696 21.9357 4.46813 21.7506 4.56504 21.5888C4.66195 21.4271 4.80096 21.2946 4.96724 21.2056C5.13352 21.1167 5.32083 21.0745 5.5092 21.0837C5.69756 21.0928 5.87991 21.1529 6.03678 21.2576L11.9701 25.2128L18.6993 23.2097C18.7969 23.1801 18.8984 23.1654 19.0003 23.1659C19.0868 23.1659 19.1732 23.1763 19.2576 23.1982L19.266 23.2003C19.2775 23.2036 19.2889 23.206 19.3003 23.2097ZM20.042 25.6045L25.2503 27.1545V35.6659H20.042V25.6045ZM12.7503 27.1545L17.9587 25.6045V35.6659H12.7503V27.1545Z"/>
</mask>
<path fill-rule="evenodd" clip-rule="evenodd" d="M19.3003 23.2097L26.1149 25.2378L31.9555 21.2628C32.1121 21.1561 32.2948 21.0942 32.484 21.0836C32.6732 21.0731 32.8617 21.1144 33.0292 21.203C33.1966 21.2916 33.3368 21.4242 33.4345 21.5865C33.5322 21.7489 33.5838 21.9348 33.5837 22.1243V27.3326H31.5003V24.093L27.3337 26.9284V35.6659C27.3337 36.4659 27.6347 37.1972 28.1295 37.7493H9.87116C10.366 37.1972 10.667 36.4659 10.667 35.6659V26.8482L6.50033 24.0711V27.3326H4.41699V22.1243C4.41696 21.9357 4.46813 21.7506 4.56504 21.5888C4.66195 21.4271 4.80096 21.2946 4.96724 21.2056C5.13352 21.1167 5.32083 21.0745 5.5092 21.0837C5.69756 21.0928 5.87991 21.1529 6.03678 21.2576L11.9701 25.2128L18.6993 23.2097C18.7969 23.1801 18.8984 23.1654 19.0003 23.1659C19.0868 23.1659 19.1732 23.1763 19.2576 23.1982L19.266 23.2003C19.2775 23.2036 19.2889 23.206 19.3003 23.2097ZM20.042 25.6045L25.2503 27.1545V35.6659H20.042V25.6045ZM12.7503 27.1545L17.9587 25.6045V35.6659H12.7503V27.1545Z" fill="white"/>
<path d="M19.3003 23.2097L16.8327 30.8196L16.9252 30.8496L17.0183 30.8773L19.3003 23.2097ZM26.1149 25.2378L23.8329 32.9054L27.4748 33.9893L30.616 31.8514L26.1149 25.2378ZM31.9555 21.2628L36.4566 27.8764L36.4595 27.8745L31.9555 21.2628ZM33.5837 22.1243L25.5837 22.1199V22.1243H33.5837ZM33.5837 27.3326V35.3326H41.5837V27.3326H33.5837ZM31.5003 27.3326H23.5003V35.3326H31.5003V27.3326ZM31.5003 24.093H39.5003V8.97239L26.9996 17.4791L31.5003 24.093ZM27.3337 26.9284L22.8329 20.3146L19.3337 22.6958V26.9284H27.3337ZM28.1295 37.7493V45.7493H46.042L34.087 32.41L28.1295 37.7493ZM9.87116 37.7493L3.91364 32.41L-8.04138 45.7493H9.87116V37.7493ZM10.667 26.8482H18.667V22.5662L15.1038 20.1913L10.667 26.8482ZM6.50033 24.0711L10.9372 17.4142L-1.49967 9.12507V24.0711H6.50033ZM6.50033 27.3326V35.3326H14.5003V27.3326H6.50033ZM4.41699 27.3326H-3.58301V35.3326H4.41699V27.3326ZM4.41699 22.1243H12.417V22.1231L4.41699 22.1243ZM6.03678 21.2576L1.59678 27.9124L1.59945 27.9142L6.03678 21.2576ZM11.9701 25.2128L7.53278 31.8694L10.6556 33.951L14.2526 32.8803L11.9701 25.2128ZM18.6993 23.2097L20.9817 30.8772L20.9998 30.8718L21.0178 30.8664L18.6993 23.2097ZM19.0003 23.1659L18.9572 31.1658L18.9788 31.1659H19.0003V23.1659ZM19.2576 23.1982L17.2499 30.9422L17.283 30.9508L17.3161 30.959L19.2576 23.1982ZM19.266 23.2003L21.4376 15.5007L21.323 15.4684L21.2075 15.4395L19.266 23.2003ZM20.042 25.6045L22.3239 17.9368L12.042 14.8769V25.6045H20.042ZM25.2503 27.1545H33.2503V21.1885L27.5322 19.4868L25.2503 27.1545ZM25.2503 35.6659V43.6659H33.2503V35.6659H25.2503ZM20.042 35.6659H12.042V43.6659H20.042V35.6659ZM12.7503 27.1545L10.4684 19.4868L4.75033 21.1885V27.1545H12.7503ZM17.9587 25.6045H25.9587V14.8769L15.6768 17.9368L17.9587 25.6045ZM17.9587 35.6659V43.6659H25.9587V35.6659H17.9587ZM12.7503 35.6659H4.75033V43.6659H12.7503V35.6659ZM17.0183 30.8773L23.8329 32.9054L28.3969 17.5702L21.5823 15.5421L17.0183 30.8773ZM30.616 31.8514L36.4566 27.8764L27.4544 14.6492L21.6138 18.6242L30.616 31.8514ZM36.4595 27.8745C35.4135 28.587 34.1929 29.0008 32.9292 29.0713L32.0389 13.096C30.3968 13.1876 28.8107 13.7252 27.4515 14.6512L36.4595 27.8745ZM32.9292 29.0713C31.6655 29.1417 30.4065 28.8661 29.2877 28.2742L36.7706 14.1318C35.3169 13.3626 33.6809 13.0045 32.0389 13.096L32.9292 29.0713ZM29.2877 28.2742C28.1689 27.6822 27.2328 26.7963 26.5802 25.7119L40.2888 17.4611C39.4407 16.0521 38.2244 14.901 36.7706 14.1318L29.2877 28.2742ZM26.5802 25.7119C25.9275 24.6275 25.583 23.3856 25.5837 22.1199L41.5837 22.1286C41.5846 20.484 41.1368 18.8702 40.2888 17.4611L26.5802 25.7119ZM25.5837 22.1243V27.3326H41.5837V22.1243H25.5837ZM33.5837 19.3326H31.5003V35.3326H33.5837V19.3326ZM39.5003 27.3326V24.093H23.5003V27.3326H39.5003ZM26.9996 17.4791L22.8329 20.3146L31.8344 33.5423L36.0011 30.7069L26.9996 17.4791ZM19.3337 26.9284V35.6659H35.3337V26.9284H19.3337ZM19.3337 35.6659C19.3337 38.5072 20.41 41.1225 22.172 43.0885L34.087 32.41C34.8594 33.2718 35.3337 34.4246 35.3337 35.6659H19.3337ZM28.1295 29.7493H9.87116V45.7493H28.1295V29.7493ZM15.8287 43.0885C17.5907 41.1225 18.667 38.5072 18.667 35.6659H2.66699C2.66699 34.4247 3.14122 33.2718 3.91364 32.41L15.8287 43.0885ZM18.667 35.6659V26.8482H2.66699V35.6659H18.667ZM15.1038 20.1913L10.9372 17.4142L2.06349 30.7281L6.23016 33.5051L15.1038 20.1913ZM-1.49967 24.0711V27.3326H14.5003V24.0711H-1.49967ZM6.50033 19.3326H4.41699V35.3326H6.50033V19.3326ZM12.417 27.3326V22.1243H-3.58301V27.3326H12.417ZM12.417 22.1231C12.4172 23.3828 12.0754 24.619 11.428 25.6997L-2.29796 17.478C-3.13912 18.8823 -3.58325 20.4885 -3.58301 22.1255L12.417 22.1231ZM11.428 25.6997C10.7807 26.7804 9.85211 27.6651 8.74136 28.2594L1.19312 14.1518C-0.2502 14.9241 -1.4568 16.0737 -2.29796 17.478L11.428 25.6997ZM8.74136 28.2594C7.63059 28.8538 6.37933 29.1354 5.12106 29.0742L5.89733 13.0931C4.26234 13.0137 2.63644 13.3796 1.19312 14.1518L8.74136 28.2594ZM5.12106 29.0742C3.86282 29.0131 2.64474 28.6116 1.59678 27.9124L10.4768 14.6028C9.11508 13.6943 7.5323 13.1725 5.89733 13.0931L5.12106 29.0742ZM1.59945 27.9142L7.53278 31.8694L16.4074 18.5562L10.4741 14.601L1.59945 27.9142ZM14.2526 32.8803L20.9817 30.8772L16.4168 15.5422L9.68767 17.5453L14.2526 32.8803ZM21.0178 30.8664C20.3497 31.0686 19.6552 31.1696 18.9572 31.1658L19.0434 15.166C18.1416 15.1612 17.244 15.2916 16.3808 15.553L21.0178 30.8664ZM19.0003 31.1659C18.4446 31.1659 17.8544 31.0989 17.2499 30.9422L21.2653 15.4542C20.4921 15.2538 19.729 15.1659 19.0003 15.1659V31.1659ZM17.3161 30.959L17.3244 30.9611L21.2075 15.4395L21.1992 15.4374L17.3161 30.959ZM17.0943 30.8999C17.1771 30.9233 17.2429 30.9404 17.2726 30.9481C17.2875 30.9519 17.2999 30.9551 17.301 30.9554C17.3057 30.9566 17.2972 30.9544 17.2881 30.9521C17.2692 30.9472 17.2124 30.9325 17.1392 30.9121C17.0639 30.891 16.9583 30.8603 16.8327 30.8196L21.7679 15.5998C21.6367 15.5572 21.5253 15.5248 21.4444 15.5022C21.3655 15.4801 21.3029 15.4639 21.2782 15.4576C21.2714 15.4558 21.2657 15.4544 21.2623 15.4535C21.2606 15.4531 21.2591 15.4527 21.2583 15.4525C21.2578 15.4523 21.2574 15.4522 21.2572 15.4522C21.2569 15.4521 21.2569 15.4521 21.2568 15.4521C21.255 15.4516 21.2646 15.4541 21.2766 15.4572C21.3005 15.4633 21.3606 15.479 21.4376 15.5007L17.0943 30.8999ZM17.7601 33.2721L22.9684 34.8221L27.5322 19.4868L22.3239 17.9368L17.7601 33.2721ZM17.2503 27.1545V35.6659H33.2503V27.1545H17.2503ZM25.2503 27.6659H20.042V43.6659H25.2503V27.6659ZM28.042 35.6659V25.6045H12.042V35.6659H28.042ZM15.0322 34.8221L20.2406 33.2721L15.6768 17.9368L10.4684 19.4868L15.0322 34.8221ZM9.95866 25.6045V35.6659H25.9587V25.6045H9.95866ZM17.9587 27.6659H12.7503V43.6659H17.9587V27.6659ZM20.7503 35.6659V27.1545H4.75033V35.6659H20.7503Z" fill="white" mask="url(#path-3-inside-2_644_214)"/>
<mask id="path-5-inside-3_644_214" fill="white">
<path fill-rule="evenodd" clip-rule="evenodd" d="M3.375 31.4993C3.09873 31.4993 2.83378 31.6091 2.63843 31.8044C2.44308 31.9998 2.33333 32.2647 2.33333 32.541V35.666H5.45833C5.7346 35.666 5.99955 35.5563 6.1949 35.3609C6.39025 35.1656 6.5 34.9006 6.5 34.6243V32.541C6.5 32.2647 6.39025 31.9998 6.1949 31.8044C5.99955 31.6091 5.7346 31.4993 5.45833 31.4993H3.375ZM0.25 32.541C0.25 31.7122 0.57924 30.9174 1.16529 30.3313C1.75134 29.7453 2.5462 29.416 3.375 29.416H5.45833C6.28713 29.416 7.08199 29.7453 7.66804 30.3313C8.25409 30.9174 8.58333 31.7122 8.58333 32.541V34.6243C8.58333 35.4532 8.25409 36.248 7.66804 36.8341C7.08199 37.4201 6.28713 37.7493 5.45833 37.7493H0.25V32.541ZM34.625 31.4993C34.9013 31.4993 35.1662 31.6091 35.3616 31.8044C35.5569 31.9998 35.6667 32.2647 35.6667 32.541V35.666H32.5417C32.2654 35.666 32.0004 35.5563 31.8051 35.3609C31.6097 35.1656 31.5 34.9006 31.5 34.6243V32.541C31.5 32.2647 31.6097 31.9998 31.8051 31.8044C32.0004 31.6091 32.2654 31.4993 32.5417 31.4993H34.625ZM37.75 32.541C37.75 31.7122 37.4208 30.9174 36.8347 30.3313C36.2487 29.7453 35.4538 29.416 34.625 29.416H32.5417C31.7129 29.416 30.918 29.7453 30.332 30.3313C29.7459 30.9174 29.4167 31.7122 29.4167 32.541V34.6243C29.4167 35.4532 29.7459 36.248 30.332 36.8341C30.918 37.4201 31.7129 37.7493 32.5417 37.7493H37.75V32.541Z"/>
</mask>
<path fill-rule="evenodd" clip-rule="evenodd" d="M3.375 31.4993C3.09873 31.4993 2.83378 31.6091 2.63843 31.8044C2.44308 31.9998 2.33333 32.2647 2.33333 32.541V35.666H5.45833C5.7346 35.666 5.99955 35.5563 6.1949 35.3609C6.39025 35.1656 6.5 34.9006 6.5 34.6243V32.541C6.5 32.2647 6.39025 31.9998 6.1949 31.8044C5.99955 31.6091 5.7346 31.4993 5.45833 31.4993H3.375ZM0.25 32.541C0.25 31.7122 0.57924 30.9174 1.16529 30.3313C1.75134 29.7453 2.5462 29.416 3.375 29.416H5.45833C6.28713 29.416 7.08199 29.7453 7.66804 30.3313C8.25409 30.9174 8.58333 31.7122 8.58333 32.541V34.6243C8.58333 35.4532 8.25409 36.248 7.66804 36.8341C7.08199 37.4201 6.28713 37.7493 5.45833 37.7493H0.25V32.541ZM34.625 31.4993C34.9013 31.4993 35.1662 31.6091 35.3616 31.8044C35.5569 31.9998 35.6667 32.2647 35.6667 32.541V35.666H32.5417C32.2654 35.666 32.0004 35.5563 31.8051 35.3609C31.6097 35.1656 31.5 34.9006 31.5 34.6243V32.541C31.5 32.2647 31.6097 31.9998 31.8051 31.8044C32.0004 31.6091 32.2654 31.4993 32.5417 31.4993H34.625ZM37.75 32.541C37.75 31.7122 37.4208 30.9174 36.8347 30.3313C36.2487 29.7453 35.4538 29.416 34.625 29.416H32.5417C31.7129 29.416 30.918 29.7453 30.332 30.3313C29.7459 30.9174 29.4167 31.7122 29.4167 32.541V34.6243C29.4167 35.4532 29.7459 36.248 30.332 36.8341C30.918 37.4201 31.7129 37.7493 32.5417 37.7493H37.75V32.541Z" fill="white"/>
<path d="M2.33333 32.541L10.3333 32.541L2.33333 32.541ZM2.33333 35.666H-5.66667V43.666H2.33333V35.666ZM8.58333 34.6243H16.5833H8.58333ZM0.25 37.7493H-7.75V45.7493H0.25V37.7493ZM35.6667 35.666V43.666H43.6667V35.666H35.6667ZM37.75 37.7493V45.7493H45.75V37.7493H37.75ZM3.375 23.4993C0.977015 23.4993 -1.32277 24.4519 -3.01842 26.1476L8.29529 37.4613C6.99033 38.7662 5.22045 39.4993 3.375 39.4993V23.4993ZM-3.01842 26.1476C-4.71407 27.8432 -5.66667 30.143 -5.66667 32.541L10.3333 32.541C10.3333 34.3865 9.60023 36.1564 8.29529 37.4613L-3.01842 26.1476ZM-5.66667 32.541V35.666H10.3333V32.541H-5.66667ZM2.33333 43.666H5.45833V27.666H2.33333V43.666ZM5.45833 43.666C7.85632 43.666 10.1561 42.7134 11.8518 41.0178L0.538048 29.7041C1.843 28.3991 3.61288 27.666 5.45833 27.666V43.666ZM11.8518 41.0178C13.5474 39.3221 14.5 37.0223 14.5 34.6243H-1.5C-1.5 32.7789 -0.766894 31.009 0.538048 29.7041L11.8518 41.0178ZM14.5 34.6243V32.541H-1.5V34.6243H14.5ZM14.5 32.541C14.5 30.143 13.5474 27.8432 11.8518 26.1476L0.538048 37.4613C-0.766894 36.1564 -1.5 34.3865 -1.5 32.541H14.5ZM11.8518 26.1476C10.1561 24.4519 7.85632 23.4993 5.45833 23.4993V39.4993C3.61288 39.4993 1.843 38.7662 0.538048 37.4613L11.8518 26.1476ZM5.45833 23.4993H3.375V39.4993H5.45833V23.4993ZM8.25 32.541C8.25 33.834 7.73638 35.0739 6.82215 35.9882L-4.49156 24.6745C-6.5779 26.7608 -7.75 29.5905 -7.75 32.541H8.25ZM6.82215 35.9882C5.90791 36.9024 4.66794 37.416 3.375 37.416V21.416C0.424456 21.416 -2.40523 22.5881 -4.49156 24.6745L6.82215 35.9882ZM3.375 37.416H5.45833V21.416H3.375V37.416ZM5.45833 37.416C4.16539 37.416 2.92542 36.9024 2.01119 35.9882L13.3249 24.6745C11.2386 22.5881 8.40888 21.416 5.45833 21.416V37.416ZM2.01119 35.9882C1.09695 35.0739 0.583333 33.8339 0.583333 32.541H16.5833C16.5833 29.5905 15.4112 26.7608 13.3249 24.6745L2.01119 35.9882ZM0.583333 32.541V34.6243H16.5833V32.541H0.583333ZM0.583333 34.6243C0.583333 33.3314 1.09695 32.0914 2.01119 31.1772L13.3249 42.4909C15.4112 40.4046 16.5833 37.5749 16.5833 34.6243H0.583333ZM2.01119 31.1772C2.92542 30.263 4.16539 29.7493 5.45833 29.7493V45.7493C8.40888 45.7493 11.2386 44.5772 13.3249 42.4909L2.01119 31.1772ZM5.45833 29.7493H0.25V45.7493H5.45833V29.7493ZM8.25 37.7493V32.541H-7.75V37.7493H8.25ZM34.625 39.4993C32.7796 39.4993 31.0097 38.7663 29.7047 37.4613L41.0184 26.1476C39.3228 24.4519 37.023 23.4993 34.625 23.4993V39.4993ZM29.7047 37.4613C28.3998 36.1563 27.6667 34.3865 27.6667 32.541H43.6667C43.6667 30.143 42.7141 27.8432 41.0184 26.1476L29.7047 37.4613ZM27.6667 32.541V35.666H43.6667V32.541H27.6667ZM35.6667 27.666H32.5417V43.666H35.6667V27.666ZM32.5417 27.666C34.3871 27.666 36.157 28.3991 37.4619 29.7041L26.1482 41.0178C27.8439 42.7134 30.1437 43.666 32.5417 43.666V27.666ZM37.4619 29.7041C38.7669 31.009 39.5 32.7789 39.5 34.6243H23.5C23.5 37.0223 24.4526 39.3221 26.1482 41.0178L37.4619 29.7041ZM39.5 34.6243V32.541H23.5V34.6243H39.5ZM39.5 32.541C39.5 34.3865 38.7669 36.1563 37.4619 37.4613L26.1482 26.1476C24.4526 27.8432 23.5 30.143 23.5 32.541H39.5ZM37.4619 37.4613C36.157 38.7663 34.3871 39.4993 32.5417 39.4993V23.4993C30.1437 23.4993 27.8439 24.4519 26.1482 26.1476L37.4619 37.4613ZM32.5417 39.4993H34.625V23.4993H32.5417V39.4993ZM45.75 32.541C45.75 29.5905 44.5779 26.7608 42.4916 24.6745L31.1779 35.9882C30.2636 35.0739 29.75 33.834 29.75 32.541H45.75ZM42.4916 24.6745C40.4052 22.5881 37.5755 21.416 34.625 21.416V37.416C33.3321 37.416 32.0921 36.9024 31.1779 35.9882L42.4916 24.6745ZM34.625 21.416H32.5417V37.416H34.625V21.416ZM32.5417 21.416C29.5911 21.416 26.7614 22.5881 24.6751 24.6745L35.9888 35.9882C35.0746 36.9024 33.8346 37.416 32.5417 37.416V21.416ZM24.6751 24.6745C22.5888 26.7608 21.4167 29.5905 21.4167 32.541H37.4167C37.4167 33.834 36.903 35.0739 35.9888 35.9882L24.6751 24.6745ZM21.4167 32.541V34.6243H37.4167V32.541H21.4167ZM21.4167 34.6243C21.4167 37.5749 22.5888 40.4046 24.6751 42.4909L35.9888 31.1772C36.903 32.0914 37.4167 33.3314 37.4167 34.6243H21.4167ZM24.6751 42.4909C26.7614 44.5772 29.5911 45.7493 32.5417 45.7493V29.7493C33.8346 29.7493 35.0746 30.263 35.9888 31.1772L24.6751 42.4909ZM32.5417 45.7493H37.75V29.7493H32.5417V45.7493ZM45.75 37.7493V32.541H29.75V37.7493H45.75Z" fill="white" mask="url(#path-5-inside-3_644_214)"/>
</svg>
