<svg width="20" height="20" viewBox="0 0 20 20" fill="none" xmlns="http://www.w3.org/2000/svg">
<path fill-rule="evenodd" clip-rule="evenodd" d="M9.53266 16.8304L10.1055 16.185C10.7555 15.4406 11.3401 14.7344 11.8602 14.0626L12.2896 13.4961C14.0825 11.0805 14.9794 9.16327 14.9794 7.74622C14.9794 4.72147 12.5411 2.26953 9.53266 2.26953C6.52426 2.26953 4.08594 4.72147 4.08594 7.74622C4.08594 9.16327 4.98283 11.0805 6.77571 13.4961L7.2051 14.0626C7.94716 15.0134 8.72353 15.936 9.53266 16.8304Z" stroke="white" stroke-width="0.907788" stroke-linecap="round" stroke-linejoin="round"/>
<path d="M9.52728 9.98816C10.7807 9.98816 11.7968 8.97208 11.7968 7.71869C11.7968 6.46529 10.7807 5.44922 9.52728 5.44922C8.27389 5.44922 7.25781 6.46529 7.25781 7.71869C7.25781 8.97208 8.27389 9.98816 9.52728 9.98816Z" stroke="white" stroke-width="0.907788" stroke-linecap="round" stroke-linejoin="round"/>
</svg>
