<svg width="20" height="20" viewBox="0 0 20 20" fill="none" xmlns="http://www.w3.org/2000/svg">
<path d="M3.66642 15.0931C3.30051 15.0931 2.99523 14.9707 2.75058 14.7261C2.50593 14.4814 2.38334 14.1759 2.38281 13.8094V5.25627C2.38281 4.89035 2.5054 4.58507 2.75058 4.34042C2.99576 4.09577 3.30078 3.97319 3.66563 3.97266H15.3977C15.763 3.97266 16.0681 4.09525 16.3127 4.34042C16.5574 4.5856 16.6799 4.89088 16.6805 5.25627V13.8102C16.6805 14.1756 16.5579 14.4809 16.3127 14.7261C16.0675 14.9713 15.7625 15.0936 15.3977 15.0931H3.66642ZM9.53164 9.625L3.17713 5.46994V13.8102C3.17713 13.9527 3.22293 14.0697 3.31454 14.1613C3.40615 14.2529 3.52345 14.2987 3.66642 14.2987H15.3977C15.5401 14.2987 15.6571 14.2529 15.7487 14.1613C15.8404 14.0697 15.8862 13.9524 15.8862 13.8094V5.46914L9.53164 9.625ZM9.53164 8.73854L15.6415 4.76697H3.42178L9.53164 8.73854ZM3.17713 5.46994V4.76697V13.8102C3.17713 13.9527 3.22293 14.0697 3.31454 14.1613C3.40615 14.2529 3.52345 14.2987 3.66642 14.2987H3.17713V5.46994Z" fill="white"/>
</svg>
