<svg width="20" height="20" viewBox="0 0 20 20" fill="none" xmlns="http://www.w3.org/2000/svg">
<path d="M14.071 10.8844L16.1743 12.9877C16.2416 13.055 16.295 13.1348 16.3314 13.2227C16.3678 13.3107 16.3866 13.4049 16.3866 13.5C16.3866 13.5952 16.3678 13.6894 16.3314 13.7773C16.295 13.8652 16.2416 13.9451 16.1743 14.0124C15.4346 14.752 14.453 15.2 13.4095 15.2741C12.3661 15.3482 11.331 15.0435 10.4942 14.4159L9.24313 13.477C7.85819 12.4383 6.62794 11.2081 5.58929 9.82315L4.65041 8.5721C4.02278 7.73527 3.71806 6.70014 3.79218 5.65673C3.8663 4.61332 4.3143 3.63166 5.05392 2.89196C5.12119 2.82466 5.20106 2.77128 5.28897 2.73486C5.37688 2.69843 5.4711 2.67969 5.56625 2.67969C5.66141 2.67969 5.75563 2.69843 5.84354 2.73486C5.93144 2.77128 6.01131 2.82466 6.07858 2.89196L8.18193 4.9953C8.33084 5.14426 8.41449 5.34626 8.41449 5.55688C8.41449 5.76751 8.33084 5.96951 8.18193 6.11846L7.37093 6.92946C7.30795 6.99232 7.26638 7.07343 7.25212 7.16127C7.23786 7.2491 7.25164 7.3392 7.2915 7.41876C8.23399 9.3038 9.76248 10.8323 11.6475 11.7748C11.7271 11.8146 11.8172 11.8284 11.905 11.8142C11.9928 11.7999 12.074 11.7583 12.1368 11.6953L12.947 10.8851C13.0208 10.8113 13.1084 10.7527 13.2048 10.7127C13.3013 10.6728 13.4046 10.6522 13.509 10.6522C13.6134 10.6522 13.7167 10.6728 13.8132 10.7127C13.9096 10.7527 13.9972 10.8113 14.071 10.8851V10.8844Z" stroke="white" stroke-width="0.85786"/>
</svg>
